<svg width="30" height="30" viewBox="0 0 30 30" fill="none" xmlns="http://www.w3.org/2000/svg">
<path d="M27.1143 12.3326C26.8811 12.2356 26.6113 12.2893 26.4331 12.4682L22.5745 16.3256C22.312 16.5887 21.98 16.7656 21.6175 16.8383L18.4925 17.4633C17.8699 17.589 17.24 17.3913 16.7994 16.9512C16.355 16.5062 16.1634 15.8727 16.2867 15.2575L16.8379 12.4999H6.87498C6.52951 12.4999 6.24996 12.2203 6.24996 11.8749C6.24996 11.5294 6.52951 11.2498 6.87498 11.2498H17.3668C17.3886 11.2258 17.4012 11.1955 17.4243 11.1723L19.8471 8.74981H6.87498C6.52951 8.74981 6.24996 8.47026 6.24996 8.12479C6.24996 7.77933 6.52951 7.49977 6.87498 7.49977H20.625C20.7581 7.49977 20.8746 7.55052 20.9759 7.6213L25.0317 3.56602C25.3735 3.2236 25.7873 2.95442 26.2622 2.76522C26.4783 2.67915 26.6284 2.47958 26.6516 2.24825C26.676 2.01634 26.5686 1.7911 26.3745 1.6629C25.9631 1.39249 25.4883 1.24969 25 1.24969H2.50002C1.12184 1.24987 0 2.37112 0 3.74989V28.1249C0 28.3776 0.152578 28.6058 0.385723 28.7023C0.462656 28.7346 0.544395 28.7499 0.624961 28.7499C0.787324 28.7499 0.947227 28.6865 1.06688 28.5668L7.13379 22.4999H25C26.3782 22.4999 27.5 21.3787 27.5 19.9999V12.91C27.5 12.6574 27.3474 12.4291 27.1143 12.3326ZM14.375 16.2499H6.87498C6.52951 16.2499 6.24996 15.9703 6.24996 15.6249C6.24996 15.2794 6.52951 14.9998 6.87498 14.9998H14.375C14.7204 14.9998 15 15.2794 15 15.6249C15 15.9704 14.7204 16.2499 14.375 16.2499Z" fill="white"/>
<path d="M27.6076 3.75C26.9765 3.75 26.3601 4.00576 25.9157 4.45066L18.3083 12.0569C18.2204 12.1442 18.1618 12.2552 18.1374 12.3761L17.5123 15.5023C17.4709 15.7074 17.5355 15.9192 17.6833 16.0669C17.8017 16.1853 17.9616 16.25 18.1252 16.25C18.1655 16.25 18.207 16.2457 18.2472 16.2378L21.371 15.6128C21.4931 15.5883 21.6042 15.5292 21.6908 15.4419L29.2995 7.83445C29.2995 7.83445 29.2995 7.83445 29.2995 7.83387C29.745 7.38832 30.0001 6.77186 30.0001 6.14256C30.0002 4.82303 28.9272 3.75 27.6076 3.75ZM26.6163 8.74992L24.9999 7.1335L25.8837 6.24973L27.5002 7.86627L26.6163 8.74992Z" fill="white"/>
</svg>
