<svg width="30" height="30" viewBox="0 0 30 30" fill="none" xmlns="http://www.w3.org/2000/svg">
<g clip-path="url(#clip0)">
<path d="M19.8867 15.1537L30.0005 21.5475V8.48999L19.8867 15.1537Z" fill="white"/>
<path d="M0 8.48999V21.5475L10.1138 15.1537L0 8.48999Z" fill="white"/>
<path d="M28.1234 4.6875H1.87344C0.937813 4.6875 0.195312 5.385 0.0546875 6.28313L14.9984 16.1287L29.9422 6.28313C29.8016 5.385 29.0591 4.6875 28.1234 4.6875Z" fill="white"/>
<path d="M18.1673 16.2863L15.5142 18.0338C15.3567 18.1369 15.1786 18.1875 14.9986 18.1875C14.8186 18.1875 14.6405 18.1369 14.483 18.0338L11.8298 16.2844L0.0585938 23.73C0.202969 24.6207 0.941719 25.3125 1.87359 25.3125H28.1236C29.0555 25.3125 29.7942 24.6207 29.9386 23.73L18.1673 16.2863Z" fill="white"/>
</g>
<defs>
<clipPath id="clip0">
<rect width="30" height="30" fill="white"/>
</clipPath>
</defs>
</svg>
