<svg width="16" height="16" viewBox="0 0 16 16" fill="none" xmlns="http://www.w3.org/2000/svg">
<rect width="16" height="16" fill="#1C1B1B"/>
<path fill-rule="evenodd" clip-rule="evenodd" d="M5.4318 10.308C4.15665 12.3279 8.21394 13.2288 7.93819 13.9716C9.11526 12.8205 5.21573 11.8818 5.4318 10.308Z" fill="url(#paint0_linear)"/>
<path fill-rule="evenodd" clip-rule="evenodd" d="M5.6882 7.2063C2.87588 10.4019 9.68788 12.1676 8.2193 13.9428C11.1311 11.1159 4.68948 10.1114 5.6882 7.2063Z" fill="url(#paint1_linear)"/>
<path fill-rule="evenodd" clip-rule="evenodd" d="M10.4151 8.58341C10.4359 8.49696 10.4291 8.40621 10.3959 8.32374C10.4021 8.40615 10.3868 8.48876 10.3516 8.56355C10.3164 8.63834 10.2624 8.70277 10.1949 8.75059C10.1646 8.63812 10.1067 8.535 10.0263 8.45064C9.94588 8.36627 9.84563 8.30333 9.73467 8.26755C9.96935 8.10676 10.2414 8.00885 10.5249 7.98321C10.6524 8.24015 10.5791 8.42788 10.4151 8.58341ZM10.3829 6.59095C10.5643 6.85308 10.7711 7.0968 11.0002 7.3186C10.9158 7.36861 10.6147 7.20897 10.5887 7.27954C10.5557 7.37752 10.8171 7.48098 10.9316 7.5817C10.7423 8.10791 10.0454 7.68722 9.26137 8.32648C9.33682 8.05926 9.48636 7.87906 9.72643 7.80575C9.44215 7.58787 9.22161 7.29778 9.08783 6.96574C9.01121 7.10177 8.98338 7.25986 9.00895 7.41384C8.73185 7.2244 8.53126 6.94267 8.44305 6.61904C7.49578 7.24666 8.10009 8.60602 8.74898 9.06097C8.36808 8.64151 8.15409 8.09727 8.14742 7.531C8.49038 8.99383 9.83961 8.97807 10.4796 10.1668C11.0345 11.1946 10.804 12.6629 8.3772 13.9716C9.17906 13.3357 9.55221 12.5197 9.26 11.679C8.73046 10.1531 6.32489 9.23227 6.04572 7.54265C5.92636 6.82048 6.11431 5.93662 6.68638 5.46111C6.49663 5.53839 6.32847 5.66049 6.19634 5.81694C6.06421 5.97339 5.97204 6.15952 5.92773 6.35937C6.02651 5.57006 6.46688 4.96848 7.09382 4.71497L6.64042 3.44125L7.124 3.59473C7.09188 3.6619 7.08048 3.7371 7.09125 3.81076C7.10201 3.88442 7.13445 3.95323 7.18445 4.00843C7.23445 4.06364 7.29975 4.10275 7.37205 4.1208C7.44435 4.13885 7.5204 4.13503 7.59052 4.10981C7.66064 4.0846 7.72168 4.03913 7.76587 3.97919C7.81006 3.91924 7.83542 3.84753 7.83872 3.77316C7.84202 3.69879 7.82311 3.62512 7.7844 3.5615C7.74569 3.49789 7.68892 3.44721 7.6213 3.4159L7.99788 3L8.37446 3.4159C8.30728 3.44724 8.25091 3.49777 8.21246 3.56109C8.174 3.62442 8.1552 3.69771 8.15841 3.7717C8.16162 3.8457 8.18671 3.91708 8.23051 3.97684C8.27431 4.0366 8.33485 4.08206 8.4045 4.10748C8.47414 4.1329 8.54976 4.13714 8.62181 4.11966C8.69387 4.10218 8.75912 4.06376 8.80933 4.00927C8.85955 3.95478 8.89247 3.88664 8.90395 3.81347C8.91542 3.7403 8.90494 3.66537 8.87382 3.59815L9.3574 3.44467L8.97808 4.50394C8.62462 4.40221 8.25162 4.38834 7.89156 4.46351L8.11861 4.66153C7.82588 4.6843 7.54643 4.793 7.31538 4.97396C7.57123 4.81843 7.99651 4.73347 8.29626 4.74169L8.09048 4.52381C8.80042 4.47996 9.73672 4.86022 9.78405 5.63241C9.86081 5.57634 9.92661 5.50667 9.97817 5.42686C9.95406 5.55762 9.89397 5.67909 9.80463 5.77766C10.1421 6.15793 10.3095 6.08804 10.3829 6.59095ZM8.60562 5.64817C8.15908 5.64817 7.0849 4.63892 7.56094 5.99075C7.27902 6.40596 7.08628 7.26104 7.42376 7.84069C7.25913 7.22816 7.38946 6.67112 7.67344 6.32374C7.52297 6.42107 7.40929 6.56573 7.35036 6.73484C7.46628 6.28194 7.67892 6.02227 8.07814 5.83385C7.94987 5.80233 7.82914 5.43782 7.5534 5.35423C7.76192 5.26379 8.3093 5.81535 8.60288 5.64817H8.60562ZM10.2457 6.91983L10.1195 6.70949L10.1668 6.52792C9.99263 6.46491 9.80879 6.43268 9.62354 6.43268C9.85002 6.56914 10.059 6.73274 10.2457 6.91983Z" fill="url(#paint2_linear)"/>
<defs>
<linearGradient id="paint0_linear" x1="8.16009" y1="12.1398" x2="5.18311" y2="12.1398" gradientUnits="userSpaceOnUse">
<stop stop-color="#939393"/>
<stop offset="1" stop-color="#EBEBEB"/>
</linearGradient>
<linearGradient id="paint1_linear" x1="8.98139" y1="10.5746" x2="5" y2="10.5746" gradientUnits="userSpaceOnUse">
<stop stop-color="#939393"/>
<stop offset="1" stop-color="#EBEBEB"/>
</linearGradient>
<linearGradient id="paint2_linear" x1="11.0002" y1="8.48578" x2="5.92773" y2="8.48578" gradientUnits="userSpaceOnUse">
<stop stop-color="#939393"/>
<stop offset="1" stop-color="#EBEBEB"/>
</linearGradient>
</defs>
</svg>
