<svg width="16" height="16" viewBox="0 0 16 16" fill="none" xmlns="http://www.w3.org/2000/svg">
<rect width="16" height="16" fill="#1C1B1B"/>
<path d="M3.31689 5.77201L4.02791 6.18234L8.11812 3.81874L12.5272 6.36446V8.90514L8.12315 6.28619C8.05108 6.31292 6.89408 6.98365 6.57015 7.16963L7.29008 7.57726L8.11812 7.10376L13.2378 10.0742V5.95606L8.11812 3L3.31689 5.77201Z" fill="url(#paint0_linear)"/>
<path d="M9.6678 5.52911C8.66888 4.95177 8.23684 4.70224 8.10704 4.64722L4.73096 6.58847L5.4443 6.99881L8.11789 5.46247L11.7908 7.57189V6.75238C10.8794 6.22851 10.1905 5.83057 9.6678 5.52911Z" fill="url(#paint1_linear)"/>
<path d="M12.9089 10.2486L12.1863 9.82974L8.11779 12.1794L3.70869 9.63368V7.16623C3.70869 7.16623 7.99302 9.65383 8.12864 9.71079L9.65142 8.83509L8.93769 8.4201L8.11779 8.89631L3 5.95459V10.0432L8.11779 13.0001L12.9089 10.2486Z" fill="url(#paint2_linear)"/>
<path d="M8.11782 10.5376L4.43408 8.42896V9.22754C5.35318 9.75955 7.99887 11.2978 8.12712 11.3529L11.4784 9.41896L10.7546 8.99893L8.11782 10.5376Z" fill="url(#paint3_linear)"/>
<defs>
<linearGradient id="paint0_linear" x1="13.2378" y1="6.53708" x2="3.31689" y2="6.53708" gradientUnits="userSpaceOnUse">
<stop stop-color="#939393"/>
<stop offset="1" stop-color="#EBEBEB"/>
</linearGradient>
<linearGradient id="paint1_linear" x1="11.7908" y1="6.10955" x2="4.73096" y2="6.10955" gradientUnits="userSpaceOnUse">
<stop stop-color="#939393"/>
<stop offset="1" stop-color="#EBEBEB"/>
</linearGradient>
<linearGradient id="paint2_linear" x1="12.9089" y1="9.47733" x2="3" y2="9.47733" gradientUnits="userSpaceOnUse">
<stop stop-color="#939393"/>
<stop offset="1" stop-color="#EBEBEB"/>
</linearGradient>
<linearGradient id="paint3_linear" x1="11.4784" y1="9.8909" x2="4.43408" y2="9.8909" gradientUnits="userSpaceOnUse">
<stop stop-color="#939393"/>
<stop offset="1" stop-color="#EBEBEB"/>
</linearGradient>
</defs>
</svg>
