<svg width="16" height="16" viewBox="0 0 16 16" fill="none" xmlns="http://www.w3.org/2000/svg">
<rect width="16" height="16" fill="#501A1C"/>
<path d="M7.99988 3L4 5.49994V10.4998L7.99988 13L12 10.4998V5.49994L7.99988 3ZM11.5031 5.81056V9.87881L10.793 9.43488V6.25424L7.99988 4.50861L5.45612 6.09906L4.7453 5.65435L7.99988 3.62125L11.5031 5.81056ZM4.49687 7.57575L10.0472 11.0989L9.23467 11.6069L4.49687 8.6605V7.57575ZM4.49687 6.95193V6.12119L11.2545 10.3446L10.5413 10.7896L4.49687 6.95193ZM10.2959 9.12425L9.58604 8.68057V7.00777L7.99988 6.01747L6.66239 6.85336L5.95227 6.40943L7.99988 5.12986L10.2959 6.56487V9.12425ZM9.08894 8.36995L7.15925 7.16399L7.99988 6.63873L9.08894 7.31917V8.36995ZM4.49687 10.1892V9.28098L8.73686 11.9178L7.99988 12.3787L4.49687 10.1892Z" fill="url(#paint0_linear)"/>
<defs>
<linearGradient id="paint0_linear" x1="4" y1="13.6429" x2="12.303" y2="13.4558" gradientUnits="userSpaceOnUse">
<stop stop-color="#B28B54"/>
<stop offset="1" stop-color="#FDCC80"/>
</linearGradient>
</defs>
</svg>
