<svg width="16" height="16" viewBox="0 0 16 16" fill="none" xmlns="http://www.w3.org/2000/svg">
<rect width="16" height="16" fill="#1C1B1B"/>
<path d="M8.81014 5.20703L8.3126 5.87931L11.3376 10.5884H10.6649L7.17032 5.2772C7.12429 5.20679 7.06045 5.14876 6.98477 5.10854C6.90908 5.06832 6.82404 5.04722 6.73757 5.04722C6.65111 5.04722 6.56606 5.06832 6.49038 5.10854C6.4147 5.14876 6.35086 5.20679 6.30482 5.2772L3.07728 10.2438C3.02911 10.3182 3.00249 10.4036 3.00017 10.4912C2.99784 10.5789 3.01991 10.6655 3.06407 10.7422C3.10824 10.8189 3.1729 10.8828 3.25136 10.9273C3.32983 10.9719 3.41924 10.9955 3.51036 10.9956H5.73955L6.73594 9.31775L7.73169 11H9.62419L6.73594 6.30097L4.02809 10.589H3.66926C3.64663 10.5885 3.62451 10.5824 3.60509 10.5712C3.58567 10.56 3.56961 10.5442 3.5585 10.5252C3.54739 10.5062 3.54161 10.4848 3.54174 10.463C3.54186 10.4413 3.54788 10.4199 3.5592 10.401L6.62523 5.63245C6.63698 5.61459 6.65323 5.59988 6.67247 5.58969C6.69172 5.5795 6.71333 5.57415 6.73529 5.57415C6.75726 5.57415 6.77887 5.5795 6.79812 5.58969C6.81736 5.59988 6.83361 5.61459 6.84535 5.63245L10.2578 10.9987H12.4896C12.5808 10.9986 12.6702 10.975 12.7486 10.9305C12.8271 10.8859 12.8918 10.822 12.9359 10.7453C12.9801 10.6686 13.0022 10.582 12.9998 10.4944C12.9975 10.4067 12.9709 10.3213 12.9227 10.2469L9.66196 5.2346C9.61784 5.16531 9.55654 5.10764 9.48356 5.06674C9.41057 5.02585 9.32818 5.00301 9.24376 5.00028C9.15935 4.99755 9.07555 5.015 8.99988 5.05109C8.9242 5.08717 8.85901 5.14075 8.81014 5.20703ZM6.7392 7.33726L8.77107 10.5915H8.14132L6.73594 8.31403L5.32992 10.5915H4.65719L6.7392 7.33726ZM11.9804 10.5915L8.94365 5.88244L9.13902 5.62117C9.15164 5.60503 9.16813 5.59207 9.18708 5.58338C9.20603 5.5747 9.22688 5.57055 9.24786 5.57128C9.26884 5.57202 9.28932 5.57763 9.30756 5.58762C9.32581 5.59762 9.34126 5.61171 9.35262 5.62869L12.4323 10.4023C12.4437 10.4211 12.4497 10.4425 12.4498 10.4643C12.4499 10.4861 12.4441 10.5075 12.433 10.5265C12.4219 10.5454 12.4059 10.5613 12.3864 10.5725C12.367 10.5837 12.3449 10.5898 12.3223 10.5902L11.9804 10.5915Z" fill="url(#paint0_linear)"/>
<defs>
<linearGradient id="paint0_linear" x1="13" y1="8.00028" x2="3" y2="8.00028" gradientUnits="userSpaceOnUse">
<stop offset="0.0189189" stop-color="#343333"/>
<stop offset="0.444741" stop-color="#474747"/>
<stop offset="0.8297" stop-color="#767676"/>
</linearGradient>
</defs>
</svg>
