<svg width="416" height="77" viewBox="0 0 416 77" fill="none" xmlns="http://www.w3.org/2000/svg">
<path d="M137.25 49V27.7H145.26C147 27.7 148.49 28.32 149.73 29.56C150.97 30.78 151.59 32.27 151.59 34.03C151.59 35.45 151.08 36.67 150.06 37.69C150.98 38.17 151.71 38.85 152.25 39.73C152.81 40.61 153.09 41.61 153.09 42.73C153.09 44.49 152.47 45.98 151.23 47.2C149.99 48.4 148.45 49 146.61 49H137.25ZM142.02 44.62H146.22C146.86 44.62 147.39 44.42 147.81 44.02C148.23 43.6 148.44 43.09 148.44 42.49C148.44 41.89 148.22 41.39 147.78 40.99C147.36 40.57 146.83 40.36 146.19 40.36H142.02V44.62ZM142.02 36.31H144.72C145.36 36.31 145.89 36.11 146.31 35.71C146.73 35.31 146.94 34.81 146.94 34.21C146.94 33.61 146.73 33.1 146.31 32.68C145.89 32.26 145.36 32.05 144.72 32.05H142.02V36.31ZM156.293 49V27.7H161.063V44.44H169.883V49H156.293ZM170.566 49L179.686 27.7H184.006L193.126 49H188.146L186.256 44.5H177.436L175.546 49H170.566ZM181.846 33.97L179.146 40.36H184.516L181.846 33.97ZM204.189 49.36C201.149 49.36 198.549 48.29 196.389 46.15C194.249 43.99 193.179 41.39 193.179 38.35C193.179 35.31 194.249 32.72 196.389 30.58C198.549 28.42 201.149 27.34 204.189 27.34C206.369 27.34 208.339 27.87 210.099 28.93C211.859 29.99 213.209 31.4 214.149 33.16L209.949 35.44C208.669 33.12 206.749 31.96 204.189 31.96C202.469 31.96 200.999 32.59 199.779 33.85C198.579 35.11 197.979 36.61 197.979 38.35C197.979 40.09 198.579 41.59 199.779 42.85C200.999 44.11 202.469 44.74 204.189 44.74C206.749 44.74 208.669 43.58 209.949 41.26L214.149 43.54C213.209 45.3 211.859 46.71 210.099 47.77C208.339 48.83 206.369 49.36 204.189 49.36ZM230.348 49L221.678 39.46V49H216.938V27.7H221.678V36.61L228.908 27.7H234.758L226.358 37.93L236.468 49H230.348ZM237.943 49V27.7H251.443V32.26H242.713V36.07H249.643V40.63H242.713V44.44H251.443V49H237.943ZM255.082 49V27.7H259.432L266.062 38.56L272.722 27.7H277.072V49H272.272V36.82L267.652 44.44H264.532L259.852 36.76V49H255.082ZM294.136 29.8C295.576 31.2 296.296 32.93 296.296 34.99C296.296 37.05 295.576 38.78 294.136 40.18C292.716 41.56 290.936 42.25 288.796 42.25H286.336V49H281.566V27.7H288.796C290.936 27.7 292.716 28.4 294.136 29.8ZM291.676 34.99C291.676 34.19 291.396 33.53 290.836 33.01C290.296 32.47 289.596 32.2 288.736 32.2H286.336V37.78H288.736C289.576 37.78 290.276 37.51 290.836 36.97C291.396 36.43 291.676 35.77 291.676 34.99ZM299.35 49V27.7H304.12V49H299.35ZM308.607 49V27.7H317.007C318.967 27.7 320.557 28.32 321.777 29.56C322.997 30.8 323.607 32.32 323.607 34.12C323.607 36.8 322.217 38.63 319.437 39.61L326.967 49H321.237L314.127 40.21H313.377V49H308.607ZM313.377 36.16H316.437C317.157 36.16 317.737 35.97 318.177 35.59C318.637 35.21 318.867 34.72 318.867 34.12C318.867 33.48 318.637 32.98 318.177 32.62C317.737 32.26 317.157 32.08 316.437 32.08H313.377V36.16ZM328.471 49V27.7H341.971V32.26H333.241V36.07H340.171V40.63H333.241V44.44H341.971V49H328.471Z" fill="url(#paint0_linear)"/>
<path d="M69.7217 4.5879L63.7512 12.9913L100.051 71.8546H91.9785L50.0439 5.46506C49.4915 4.58489 48.7254 3.8595 47.8172 3.35674C46.909 2.85397 45.8884 2.59026 44.8509 2.59026C43.8134 2.59026 42.7928 2.85397 41.8846 3.35674C40.9764 3.8595 40.2103 4.58489 39.6579 5.46506L0.927386 67.5471C0.349363 68.4772 0.0298657 69.5452 0.00199376 70.6406C-0.0258781 71.7359 0.238915 72.8189 0.768885 73.7773C1.29886 74.7357 2.07475 75.5347 3.01633 76.0917C3.9579 76.6486 5.03093 76.9433 6.1243 76.9452H32.8746L44.8313 55.9718L56.7803 77H79.4903L44.8313 18.2621L12.3371 71.8624H8.03113C7.75956 71.8567 7.49415 71.7802 7.26109 71.6404C7.02802 71.5006 6.83533 71.3023 6.70202 71.0652C6.5687 70.828 6.49935 70.5601 6.50083 70.2879C6.5023 70.0157 6.57454 69.7486 6.71041 69.5129L43.5028 9.90564C43.6438 9.68242 43.8388 9.49855 44.0697 9.37115C44.3006 9.24374 44.5599 9.17692 44.8235 9.17692C45.0871 9.17692 45.3465 9.24374 45.5774 9.37115C45.8083 9.49855 46.0033 9.68242 46.1442 9.90564L87.0942 76.9843H113.876C114.969 76.9825 116.042 76.6878 116.984 76.1308C117.925 75.5739 118.701 74.7748 119.231 73.8164C119.761 72.858 120.026 71.7751 119.998 70.6797C119.97 69.5844 119.651 68.5164 119.073 67.5863L79.9435 4.9325C79.4141 4.06639 78.6785 3.34544 77.8027 2.83426C76.9268 2.32307 75.9381 2.03762 74.9252 2.00347C73.9122 1.96932 72.9066 2.18754 71.9985 2.63859C71.0904 3.08963 70.3081 3.75941 69.7217 4.5879V4.5879ZM44.8704 31.2158L69.2528 71.8937H61.6958L44.8313 43.4254L27.9591 71.8937H19.8863L44.8704 31.2158ZM107.765 71.8937L71.3238 13.0305L73.6682 9.76467C73.8197 9.56293 74.0175 9.40087 74.2449 9.29229C74.4724 9.1837 74.7226 9.13182 74.9743 9.14105C75.2261 9.15028 75.4719 9.22035 75.6908 9.3453C75.9097 9.47024 76.0951 9.64636 76.2315 9.85865L113.188 69.5285C113.324 69.7642 113.396 70.0314 113.398 70.3036C113.399 70.5758 113.33 70.8437 113.196 71.0808C113.063 71.318 112.87 71.5163 112.637 71.656C112.404 71.7958 112.139 71.8724 111.867 71.878L107.765 71.8937Z" fill="url(#paint1_linear)"/>
<defs>
<linearGradient id="paint0_linear" x1="416" y1="38.5036" x2="135" y2="38.5036" gradientUnits="userSpaceOnUse">
<stop offset="0.0189189" stop-color="#343333"/>
<stop offset="0.444741" stop-color="#474747"/>
<stop offset="0.8297" stop-color="#767676"/>
</linearGradient>
<linearGradient id="paint1_linear" x1="120" y1="39.5035" x2="0" y2="39.5035" gradientUnits="userSpaceOnUse">
<stop offset="0.0189189" stop-color="#343333"/>
<stop offset="0.444741" stop-color="#474747"/>
<stop offset="0.8297" stop-color="#767676"/>
</linearGradient>
</defs>
</svg>
