<svg width="315" height="71" viewBox="0 0 315 71" fill="none" xmlns="http://www.w3.org/2000/svg">
<path d="M108.44 50L96.32 21.6H100.44L110 44.2L119.6 21.6H123.64L111.56 50H108.44ZM127.807 50V21.6H144.367V25.12H131.527V33.72H141.967V37.24H131.527V46.48H144.367V50H127.807ZM174.273 50H171.073L153.793 27.88V50H150.073V21.6H153.313L170.593 43.72V21.6H174.273V50ZM181.83 50V21.6H198.39V25.12H185.55V33.72H195.99V37.24H185.55V46.48H198.39V50H181.83ZM204.096 50V21.6H213.776C216.389 21.6 218.456 22.32 219.976 23.76C221.496 25.1733 222.256 27.0667 222.256 29.44C222.256 31.52 221.629 33.2267 220.376 34.56C219.149 35.8933 217.429 36.72 215.216 37.04L226.176 50H221.496L210.576 37.08H207.816V50H204.096ZM207.816 33.76H213.336C214.989 33.76 216.269 33.4 217.176 32.68C218.083 31.9333 218.536 30.8533 218.536 29.44C218.536 28.0267 218.083 26.9467 217.176 26.2C216.269 25.4267 214.989 25.04 213.336 25.04H207.816V33.76ZM225.967 50L238.527 21.6H241.607L254.207 50H250.327L246.647 41.72H233.407L229.807 50H225.967ZM240.007 26.64L234.887 38.36H245.167L240.007 26.64ZM282.398 50H279.198L261.918 27.88V50H258.198V21.6H261.438L278.718 43.72V21.6H282.398V50ZM286.435 50L298.995 21.6H302.075L314.675 50H310.795L307.115 41.72H293.875L290.275 50H286.435ZM300.475 26.64L295.355 38.36H305.635L300.475 26.64Z" fill="#DBC06B"/>
<g clip-path="url(#clip0)">
<path d="M55.107 28.0665L55.0564 28.2527C57.6008 29.3697 59.9153 30.9591 61.8796 32.9383C62.2138 33.2759 62.5358 33.6217 62.8457 33.9798C64.3895 31.7977 65.4352 29.2969 65.9077 26.6576C66.3801 24.0182 66.2675 21.3059 65.5779 18.7158L60.9196 1.15198L47.5303 4.77564C48.1684 5.28996 48.7769 5.84058 49.3531 6.42481C52.1025 9.2082 54.0809 12.6717 55.0906 16.4694C56.1003 20.2671 56.106 24.2659 55.107 28.0665Z" fill="#DBC06B"/>
<path d="M65.3098 18.7894L60.7224 1.49774L55.5518 2.89932L59.7644 18.7894C60.7705 22.5635 60.5215 26.567 59.0556 30.1842C60.1404 30.9438 61.1569 31.7982 62.0936 32.7377C62.3447 32.9935 62.5938 33.2595 62.8368 33.5296C64.2789 31.3991 65.2467 28.9782 65.6736 26.4335C66.1005 23.8889 65.9764 21.281 65.3098 18.7894Z" fill="#DBC06B"/>
<path d="M41.1336 18.5439L41.2713 18.681C43.4998 17.0114 46.0192 15.7801 48.6982 15.0512C49.1559 14.9284 49.6156 14.822 50.0754 14.7279C48.977 12.2853 47.3561 10.1192 45.3294 8.38552C43.3027 6.65186 40.9207 5.3938 38.3549 4.70196L20.9696 -0.00408936L17.3848 13.5228C18.1453 13.2193 18.9222 12.9597 19.7119 12.7452C23.4725 11.7336 27.4302 11.7367 31.1893 12.7542C34.9484 13.7718 38.3774 15.7682 41.1336 18.5439Z" fill="#DBC06B"/>
<path d="M38.2846 4.97617L21.1666 0.345825L19.7793 5.57568L35.5018 9.83568C39.239 10.8445 42.5457 13.0632 44.9155 16.152C46.11 15.5863 47.3516 15.1283 48.6259 14.7832C48.9702 14.6911 49.3226 14.6031 49.675 14.5274C48.5727 12.1981 46.9836 10.138 45.0172 8.4891C43.0508 6.84018 40.7538 5.64166 38.2846 4.97617Z" fill="#DBC06B"/>
<path d="M25.9826 26.0061L26.1709 25.9549C25.8544 23.1705 26.0605 20.3508 26.7785 17.6436C26.9 17.1812 27.0398 16.7249 27.1836 16.2748C24.5413 16.0159 21.8751 16.352 19.3768 17.2588C16.8784 18.1656 14.6101 19.6205 12.735 21.519L0.00585938 34.3747L9.80637 44.2758C9.92703 43.4587 10.0934 42.6492 10.3046 41.8511C11.3169 38.055 13.2976 34.5937 16.0488 31.8132C18.8 29.0326 22.2254 27.0302 25.9826 26.0061Z" fill="#DBC06B"/>
<path d="M12.933 21.7154L0.402344 34.3747L4.19373 38.207L15.7097 26.5749C18.4425 23.8058 22.0008 22.0214 25.8363 21.4965C25.9467 20.17 26.1731 18.8561 26.5127 17.57C26.6059 17.2242 26.7153 16.8723 26.8185 16.5244C24.2701 16.3236 21.7089 16.6837 19.3117 17.5799C16.9144 18.4761 14.7381 19.887 12.933 21.7154Z" fill="#DBC06B"/>
<path d="M24.8081 42.9888L24.8588 42.8005C22.3133 41.6837 19.9992 40.092 18.0375 38.1088C17.7013 37.7719 17.3786 37.4247 17.0694 37.0673C15.5256 39.2486 14.4798 41.7486 14.0073 44.3873C13.5349 47.0261 13.6476 49.7378 14.3373 52.3272L18.9955 69.8931L32.3808 66.2694C29.0112 63.5539 26.4995 59.9037 25.154 55.7668C23.8084 51.6298 23.6875 47.186 24.8061 42.9806L24.8081 42.9888Z" fill="#DBC06B"/>
<path d="M14.6058 52.2658L19.1911 69.5575L24.3719 68.1559L20.1572 52.2658C19.1535 48.4909 19.4018 44.4878 20.8641 40.869C19.7837 40.1078 18.7712 39.2527 17.8382 38.3134C17.5891 38.0597 17.338 37.7916 17.0949 37.5215C15.6495 39.6512 14.6784 42.0722 14.2487 44.6177C13.8189 47.1632 13.9408 49.7725 14.6058 52.2658Z" fill="#DBC06B"/>
<path d="M38.7786 52.5114L38.6429 52.3763C36.4149 54.044 33.8961 55.2733 31.2181 56C30.7583 56.1248 30.2986 56.2312 29.8389 56.3253C30.9371 58.7677 32.5577 60.9337 34.584 62.6673C36.6103 64.401 38.9919 65.6591 41.5573 66.3512L58.9447 71.0573L62.5315 57.5325C61.7701 57.8336 60.9933 58.0931 60.2044 58.31C56.4431 59.3218 52.4848 59.3188 48.725 58.3013C44.9652 57.2837 41.5356 55.2873 38.7786 52.5114Z" fill="#DBC06B"/>
<path d="M41.6284 66.0771L58.7484 70.7095L60.1357 65.4755L44.4132 61.2176C40.674 60.2108 37.3658 57.9909 34.9975 54.8992C33.8065 55.4678 32.5675 55.9273 31.2952 56.2721C30.9529 56.3642 30.6005 56.4501 30.2461 56.5279C31.3479 58.8557 32.936 60.9148 34.9009 62.5632C36.8658 64.2117 39.161 65.4105 41.6284 66.0771Z" fill="#DBC06B"/>
<path d="M53.9314 45.0513L53.7451 45.1004C54.0607 47.8848 53.8546 50.7043 53.1375 53.4117C53.016 53.8741 52.8762 54.3304 52.7324 54.7785C55.3744 55.0378 58.0404 54.7024 60.5387 53.7964C63.0371 52.8903 65.3056 51.4361 67.181 49.5384L79.9041 36.6765L70.1036 26.7775C69.9829 27.5939 69.8166 28.4027 69.6053 29.2001C68.5941 32.9968 66.6144 36.4589 63.8639 39.2405C61.1134 42.0221 57.6885 44.0258 53.9314 45.0513Z" fill="#DBC06B"/>
<path d="M66.9832 49.3379L79.5118 36.6765L75.7204 32.8442L64.2065 44.4804C61.4725 47.2475 57.9147 49.031 54.0799 49.5568C53.9697 50.8826 53.7433 52.1959 53.4035 53.4812C53.3103 53.8291 53.2084 54.1783 53.0977 54.5289C55.646 54.7294 58.2071 54.3692 60.6044 53.473C63.0016 52.5768 65.1779 51.166 66.9832 49.3379Z" fill="#DBC06B"/>
</g>
<defs>
<clipPath>
<rect width="80" height="71" fill="white"/>
</clipPath>
</defs>
</svg>
