<svg width="213" height="50" viewBox="0 0 213 50" fill="none" xmlns="http://www.w3.org/2000/svg">
<path d="M75.128 35.312C72.2333 35.312 69.85 34.402 67.978 32.582C66.1233 30.762 65.196 28.4913 65.196 25.77C65.196 23.0833 66.1147 20.8213 67.952 18.984C69.7893 17.1467 72.0773 16.228 74.816 16.228C77.6413 16.228 79.9553 17.086 81.758 18.802L80.146 20.544C78.6727 19.192 76.896 18.516 74.816 18.516C72.736 18.516 71.0113 19.218 69.642 20.622C68.29 22.0087 67.614 23.7247 67.614 25.77C67.614 27.85 68.2987 29.5833 69.668 30.97C71.0547 32.3393 72.8747 33.024 75.128 33.024C77.2427 33.024 78.8807 32.5647 80.042 31.646V26.706H74.816V24.444H82.382V32.712C81.5673 33.5613 80.5187 34.2113 79.236 34.662C77.9533 35.0953 76.584 35.312 75.128 35.312ZM86.3249 35V16.54H97.0889V18.828H88.7429V24.418H95.5289V26.706H88.7429V32.712H97.0889V35H86.3249ZM100.798 35V16.54H107.09C108.788 16.54 110.132 17.008 111.12 17.944C112.108 18.8627 112.602 20.0933 112.602 21.636C112.602 22.988 112.194 24.0973 111.38 24.964C110.582 25.8307 109.464 26.368 108.026 26.576L115.15 35H112.108L105.01 26.602H103.216V35H100.798ZM103.216 24.444H106.804C107.878 24.444 108.71 24.21 109.3 23.742C109.889 23.2567 110.184 22.5547 110.184 21.636C110.184 20.7173 109.889 20.0153 109.3 19.53C108.71 19.0273 107.878 18.776 106.804 18.776H103.216V24.444ZM125.239 33.024C127.267 33.024 128.957 32.322 130.309 30.918C131.679 29.514 132.363 27.798 132.363 25.77C132.363 23.742 131.679 22.026 130.309 20.622C128.957 19.218 127.267 18.516 125.239 18.516C123.229 18.516 121.539 19.218 120.169 20.622C118.817 22.026 118.141 23.742 118.141 25.77C118.141 27.798 118.817 29.514 120.169 30.918C121.539 32.322 123.229 33.024 125.239 33.024ZM125.239 35.312C122.587 35.312 120.334 34.3933 118.479 32.556C116.625 30.7013 115.697 28.4393 115.697 25.77C115.697 23.1007 116.625 20.8473 118.479 19.01C120.334 17.1553 122.587 16.228 125.239 16.228C127.909 16.228 130.162 17.1553 131.999 19.01C133.854 20.8473 134.781 23.1007 134.781 25.77C134.781 28.4393 133.854 30.7013 131.999 32.556C130.162 34.3933 127.909 35.312 125.239 35.312ZM154.156 35H152.076L140.844 20.622V35H138.426V16.54H140.532L151.764 30.918V16.54H154.156V35ZM156.781 35L164.945 16.54H166.947L175.137 35H172.615L170.223 29.618H161.617L159.277 35H156.781ZM165.907 19.816L162.579 27.434H169.261L165.907 19.816ZM177.731 35V16.54H179.941L186.779 27.356L193.643 16.54H195.853V35H193.461V21.22L187.663 30.346H185.947L180.149 21.194V35H177.731ZM200.735 35V16.54H211.499V18.828H203.153V24.418H209.939V26.706H203.153V32.712H211.499V35H200.735Z" fill="url(#paint0_linear)"/>
<g clip-path="url(#clip0)">
<path d="M32.7703 0L11.1382 12.4859V37.4576L32.7703 49.9447L54.4038 37.4576V12.4859L32.7703 0ZM51.7166 14.0373V34.356L47.8762 32.1388V16.2532L32.7703 7.5347L19.0132 15.4782L15.1689 13.2571L32.7703 3.10283L51.7166 14.0373ZM13.8253 22.8535L43.8429 40.4499L39.4483 42.9871L13.8253 28.2712V22.8535ZM13.8253 19.7378V15.5887L50.3718 36.6825L46.5146 38.9049L13.8253 19.7378ZM45.1878 30.5874L41.3486 28.3715V20.0167L32.7703 15.0707L25.5369 19.2455L21.6965 17.0283L32.7703 10.6375L45.1878 17.8046V30.5874ZM38.6602 26.8201L28.224 20.7969L32.7703 18.1735L38.6602 21.572V26.8201ZM13.8253 35.9062V31.3702L36.756 44.5398L32.7703 46.8419L13.8253 35.9062Z" fill="url(#paint1_linear)"/>
</g>
<defs>
<linearGradient id="paint0_linear" x1="64" y1="53.2143" x2="217.641" y2="40.3224" gradientUnits="userSpaceOnUse">
<stop stop-color="#B28B54"/>
<stop offset="1" stop-color="#FDCC80"/>
</linearGradient>
<linearGradient id="paint1_linear" x1="11.1382" y1="53.1554" x2="56.0386" y2="52.0602" gradientUnits="userSpaceOnUse">
<stop stop-color="#B28B54"/>
<stop offset="1" stop-color="#FDCC80"/>
</linearGradient>
<clipPath id="clip0">
<rect width="54" height="50" fill="white"/>
</clipPath>
</defs>
</svg>
