<svg width="336" height="81" viewBox="0 0 336 81" fill="none" xmlns="http://www.w3.org/2000/svg">
<path d="M120.12 55.48C115.667 55.48 112 54.08 109.12 51.28C106.267 48.48 104.84 44.9867 104.84 40.8C104.84 36.6667 106.253 33.1867 109.08 30.36C111.907 27.5333 115.427 26.12 119.64 26.12C123.987 26.12 127.547 27.44 130.32 30.08L127.84 32.76C125.573 30.68 122.84 29.64 119.64 29.64C116.44 29.64 113.787 30.72 111.68 32.88C109.6 35.0133 108.56 37.6533 108.56 40.8C108.56 44 109.613 46.6667 111.72 48.8C113.853 50.9067 116.653 51.96 120.12 51.96C123.373 51.96 125.893 51.2533 127.68 49.84V42.24H119.64V38.76H131.28V51.48C130.027 52.7867 128.413 53.7867 126.44 54.48C124.467 55.1467 122.36 55.48 120.12 55.48ZM137.346 55V26.6H153.906V30.12H141.066V38.72H151.506V42.24H141.066V51.48H153.906V55H137.346ZM183.812 55H180.612L163.332 32.88V55H159.612V26.6H162.852L180.132 48.72V26.6H183.812V55ZM191.369 55V26.6H207.929V30.12H195.089V38.72H205.529V42.24H195.089V51.48H207.929V55H191.369ZM221.235 55.48C218.968 55.48 216.928 55 215.115 54.04C213.302 53.08 212.035 51.8533 211.315 50.36L214.275 48.12C215.955 50.7067 218.302 52 221.315 52C222.862 52 224.128 51.6133 225.115 50.84C226.102 50.0667 226.595 49.04 226.595 47.76C226.595 45.5733 225.235 43.9733 222.515 42.96L218.755 41.52C216.488 40.6933 214.835 39.6667 213.795 38.44C212.782 37.1867 212.275 35.6 212.275 33.68C212.275 31.3867 213.115 29.56 214.795 28.2C216.475 26.8133 218.608 26.12 221.195 26.12C222.928 26.12 224.515 26.48 225.955 27.2C227.395 27.8933 228.555 28.8267 229.435 30L226.755 32.4C225.155 30.5333 223.275 29.6 221.115 29.6C219.675 29.6 218.462 29.9733 217.475 30.72C216.488 31.44 215.995 32.3733 215.995 33.52C215.995 34.6667 216.315 35.5733 216.955 36.24C217.622 36.9067 218.728 37.52 220.275 38.08L223.675 39.4C225.888 40.2267 227.542 41.2933 228.635 42.6C229.755 43.9067 230.315 45.5733 230.315 47.6C230.315 49.9733 229.462 51.88 227.755 53.32C226.075 54.76 223.902 55.48 221.235 55.48ZM235.783 55V26.6H239.503V55H235.783ZM254.633 55.48C252.367 55.48 250.327 55 248.513 54.04C246.7 53.08 245.433 51.8533 244.713 50.36L247.673 48.12C249.353 50.7067 251.7 52 254.713 52C256.26 52 257.527 51.6133 258.513 50.84C259.5 50.0667 259.993 49.04 259.993 47.76C259.993 45.5733 258.633 43.9733 255.913 42.96L252.153 41.52C249.887 40.6933 248.233 39.6667 247.193 38.44C246.18 37.1867 245.673 35.6 245.673 33.68C245.673 31.3867 246.513 29.56 248.193 28.2C249.873 26.8133 252.007 26.12 254.593 26.12C256.327 26.12 257.913 26.48 259.353 27.2C260.793 27.8933 261.953 28.8267 262.833 30L260.153 32.4C258.553 30.5333 256.673 29.6 254.513 29.6C253.073 29.6 251.86 29.9733 250.873 30.72C249.887 31.44 249.393 32.3733 249.393 33.52C249.393 34.6667 249.713 35.5733 250.353 36.24C251.02 36.9067 252.127 37.52 253.673 38.08L257.073 39.4C259.287 40.2267 260.94 41.2933 262.033 42.6C263.153 43.9067 263.713 45.5733 263.713 47.6C263.713 49.9733 262.86 51.88 261.153 53.32C259.473 54.76 257.3 55.48 254.633 55.48ZM265.232 55L277.792 26.6H280.872L293.472 55H289.592L285.912 46.72H272.672L269.072 55H265.232ZM279.272 31.64L274.152 43.36H284.432L279.272 31.64ZM297.463 55V26.6H307.143C309.756 26.6 311.823 27.32 313.343 28.76C314.863 30.1733 315.623 32.0667 315.623 34.44C315.623 36.52 314.996 38.2267 313.743 39.56C312.516 40.8933 310.796 41.72 308.583 42.04L319.543 55H314.863L303.943 42.08H301.183V55H297.463ZM301.183 38.76H306.703C308.356 38.76 309.636 38.4 310.543 37.68C311.45 36.9333 311.903 35.8533 311.903 34.44C311.903 33.0267 311.45 31.9467 310.543 31.2C309.636 30.4267 308.356 30.04 306.703 30.04H301.183V38.76Z" fill="url(#paint0_linear)"/>
<path d="M2.54449 22.2809L8.25955 25.5792L41.1359 6.58087L76.5755 27.0429V47.4645L41.1764 26.4138C40.5971 26.6287 31.2973 32.0199 28.6936 33.5148L34.4803 36.7912L41.1359 32.9854L82.2874 56.8609V23.7603L41.1359 0L2.54449 22.2809Z" fill="url(#paint1_linear)"/>
<path d="M53.5938 20.3282C45.5647 15.6876 42.092 13.6819 41.0487 13.2396L13.9123 28.8431L19.646 32.1413L41.1359 19.7925L70.6579 36.7477V30.1605C63.3327 25.9498 57.7952 22.7512 53.5938 20.3282Z" fill="url(#paint2_linear)"/>
<path d="M79.6464 58.2624L73.8379 54.8957L41.1359 73.7818L5.69636 53.3198V33.4868C5.69636 33.4868 40.1331 53.4817 41.2231 53.9395L53.463 46.9008L47.7261 43.5652L41.1359 47.3929L0 23.7479V56.6118L41.1359 80.3783L79.6464 58.2624Z" fill="url(#paint3_linear)"/>
<path d="M41.1359 60.5858L11.5267 43.6368V50.0558C18.9142 54.3319 40.1798 66.6964 41.2107 67.1386L68.1477 51.5943L62.3299 48.2182L41.1359 60.5858Z" fill="url(#paint4_linear)"/>
<defs>
<linearGradient id="paint0_linear" x1="336" y1="40" x2="103" y2="40" gradientUnits="userSpaceOnUse">
<stop stop-color="#939393"/>
<stop offset="1" stop-color="#EBEBEB"/>
</linearGradient>
<linearGradient id="paint1_linear" x1="82.2874" y1="28.4304" x2="2.54449" y2="28.4304" gradientUnits="userSpaceOnUse">
<stop stop-color="#939393"/>
<stop offset="1" stop-color="#EBEBEB"/>
</linearGradient>
<linearGradient id="paint2_linear" x1="70.6579" y1="24.9936" x2="13.9123" y2="24.9936" gradientUnits="userSpaceOnUse">
<stop stop-color="#939393"/>
<stop offset="1" stop-color="#EBEBEB"/>
</linearGradient>
<linearGradient id="paint3_linear" x1="79.6464" y1="52.0631" x2="0" y2="52.0631" gradientUnits="userSpaceOnUse">
<stop stop-color="#939393"/>
<stop offset="1" stop-color="#EBEBEB"/>
</linearGradient>
<linearGradient id="paint4_linear" x1="68.1477" y1="55.3877" x2="11.5267" y2="55.3877" gradientUnits="userSpaceOnUse">
<stop stop-color="#939393"/>
<stop offset="1" stop-color="#EBEBEB"/>
</linearGradient>
</defs>
</svg>
