<svg width="371" height="92" viewBox="0 0 371 92" fill="none" xmlns="http://www.w3.org/2000/svg">
<path d="M122.48 57.4C120.48 59.4533 117.84 60.48 114.56 60.48C111.28 60.48 108.627 59.4533 106.6 57.4C104.6 55.32 103.6 52.52 103.6 49V31.6H106.64V49.08C106.64 51.7733 107.347 53.8667 108.76 55.36C110.2 56.8533 112.133 57.6 114.56 57.6C116.987 57.6 118.907 56.8533 120.32 55.36C121.76 53.8667 122.48 51.7733 122.48 49.08V31.6H125.52V49C125.52 52.52 124.507 55.32 122.48 57.4ZM128.718 60L141.358 31.6H143.798L156.478 60H153.278L149.318 51.16H135.758L131.838 60H128.718ZM142.518 35.88L136.998 48.32H148.078L142.518 35.88ZM184.597 60H181.917L163.797 36.76V60H160.757V31.6H163.437L181.557 54.84V31.6H184.597V60ZM196.875 54.2C199.115 56.4667 201.875 57.6 205.155 57.6C208.435 57.6 211.181 56.4667 213.395 54.2C215.635 51.9333 216.755 49.1333 216.755 45.8C216.755 42.4933 215.635 39.7067 213.395 37.44C211.181 35.1467 208.435 34 205.155 34C201.875 34 199.115 35.1467 196.875 37.44C194.661 39.7067 193.555 42.4933 193.555 45.8C193.555 49.1333 194.661 51.9333 196.875 54.2ZM215.555 56.24C212.728 59.0667 209.261 60.48 205.155 60.48C201.048 60.48 197.568 59.0667 194.715 56.24C191.888 53.4133 190.475 49.9333 190.475 45.8C190.475 41.6667 191.888 38.1867 194.715 35.36C197.568 32.5333 201.048 31.12 205.155 31.12C209.261 31.12 212.728 32.5333 215.555 35.36C218.408 38.1867 219.835 41.6667 219.835 45.8C219.835 49.9333 218.408 53.4133 215.555 56.24ZM225.718 60V31.6H228.758V57.12H242.958V60H225.718ZM243.953 60L256.593 31.6H259.033L271.713 60H268.513L264.553 51.16H250.993L247.073 60H243.953ZM257.753 35.88L252.233 48.32H263.313L257.753 35.88ZM275.991 60V31.6H285.271C287.885 31.6 289.938 32.2933 291.431 33.68C292.925 35.04 293.671 36.8933 293.671 39.24C293.671 41.4267 293.005 43.2 291.671 44.56C290.365 45.8933 288.551 46.6533 286.231 46.84L297.471 60H293.511L282.271 46.8H279.031V60H275.991ZM279.031 44H284.911C288.698 44 290.591 42.4133 290.591 39.24C290.591 36.04 288.698 34.44 284.911 34.44H279.031V44ZM305.078 54.2C307.318 56.4667 310.078 57.6 313.358 57.6C316.638 57.6 319.384 56.4667 321.598 54.2C323.838 51.9333 324.958 49.1333 324.958 45.8C324.958 42.4933 323.838 39.7067 321.598 37.44C319.384 35.1467 316.638 34 313.358 34C310.078 34 307.318 35.1467 305.078 37.44C302.864 39.7067 301.758 42.4933 301.758 45.8C301.758 49.1333 302.864 51.9333 305.078 54.2ZM323.758 56.24C320.931 59.0667 317.464 60.48 313.358 60.48C309.251 60.48 305.771 59.0667 302.918 56.24C300.091 53.4133 298.678 49.9333 298.678 45.8C298.678 41.6667 300.091 38.1867 302.918 35.36C305.771 32.5333 309.251 31.12 313.358 31.12C317.464 31.12 320.931 32.5333 323.758 35.36C326.611 38.1867 328.038 41.6667 328.038 45.8C328.038 49.9333 326.611 53.4133 323.758 56.24ZM341.321 60.48C339.028 60.48 336.988 60 335.201 59.04C333.414 58.0533 332.188 56.8267 331.521 55.36L334.041 53.56C335.721 56.2533 338.161 57.6 341.361 57.6C343.014 57.6 344.374 57.1733 345.441 56.32C346.534 55.4667 347.081 54.3333 347.081 52.92C347.081 50.5467 345.708 48.8267 342.961 47.76L338.761 46.16C336.548 45.3333 334.948 44.32 333.961 43.12C332.974 41.92 332.481 40.3467 332.481 38.4C332.481 36.2133 333.294 34.4533 334.921 33.12C336.574 31.7867 338.654 31.12 341.161 31.12C342.894 31.12 344.454 31.48 345.841 32.2C347.254 32.92 348.374 33.8533 349.201 35L346.841 36.92C345.214 34.9733 343.281 34 341.041 34C339.468 34 338.148 34.4133 337.081 35.24C336.041 36.04 335.521 37.08 335.521 38.36C335.521 39.6133 335.841 40.6 336.481 41.32C337.148 42.0133 338.241 42.6533 339.761 43.24L343.521 44.68C345.734 45.5333 347.388 46.6 348.481 47.88C349.574 49.16 350.121 50.8133 350.121 52.84C350.121 55.1867 349.308 57.0533 347.681 58.44C346.054 59.8 343.934 60.48 341.321 60.48Z" fill="#B0A383"/>
<path fill-rule="evenodd" clip-rule="evenodd" d="M38.9803 0L33.7559 2.1763L36.7428 21.7888L38.9803 22.626V0Z" fill="#B0A383"/>
<path fill-rule="evenodd" clip-rule="evenodd" d="M30.9857 3.33032L34.4694 20.9383L31.3358 19.7657L25.9897 5.41082L30.9857 3.33032Z" fill="#B0A383"/>
<path fill-rule="evenodd" clip-rule="evenodd" d="M23.3417 6.51416L28.9928 18.8888L27.6582 18.3899L25.4052 17.5475L25.3684 17.5969L18.9028 8.36325L23.3417 6.51416Z" fill="#B0A383"/>
<path fill-rule="evenodd" clip-rule="evenodd" d="M16.4913 9.36792L24.1802 19.1882L22.2066 21.831L11.8572 11.2981L16.4913 9.36792Z" fill="#B0A383"/>
<path fill-rule="evenodd" clip-rule="evenodd" d="M0 16.2363L18.2631 27.109L17.6426 27.9388L18.0236 29.7083L1.3811 24.3033L0 16.2363Z" fill="#B0A383"/>
<path fill-rule="evenodd" clip-rule="evenodd" d="M8.71834 12.6052L21.236 23.1293L19.3471 25.6572L3.69287 14.6982L8.71834 12.6052Z" fill="#B0A383"/>
<path fill-rule="evenodd" clip-rule="evenodd" d="M2.05835 28.2603L18.4031 31.475L18.8571 33.6122L3.17414 34.7774L2.05835 28.2603Z" fill="#B0A383"/>
<path fill-rule="evenodd" clip-rule="evenodd" d="M3.76367 38.2228L17.6587 36.1047L15.7005 39.8877L4.70701 43.731L3.76367 38.2228Z" fill="#B0A383"/>
<path fill-rule="evenodd" clip-rule="evenodd" d="M5.29224 47.1478L14.0778 43.0229L12.8699 45.3555L14.8406 46.4116L6.23041 52.6273L5.29224 47.1478Z" fill="#B0A383"/>
<path fill-rule="evenodd" clip-rule="evenodd" d="M8.7583 67.3931L21.7262 50.1006L24.7663 51.8332L10.3745 76.8301V76.8294L8.7583 67.3931Z" fill="#B0A383"/>
<path fill-rule="evenodd" clip-rule="evenodd" d="M6.93359 56.7336L17.4098 47.7881L19.9767 49.1633L7.90125 62.3862L6.93359 56.7336Z" fill="#B0A383"/>
<path fill-rule="evenodd" clip-rule="evenodd" d="M14.125 78.6961L22.2841 62.425L24.8355 66.2433L18.6818 80.9623L14.125 78.6961Z" fill="#B0A383"/>
<path fill-rule="evenodd" clip-rule="evenodd" d="M21.9067 82.5675L26.9204 69.3623L29.519 73.2506L26.0044 84.6053L21.9067 82.5675Z" fill="#B0A383"/>
<path fill-rule="evenodd" clip-rule="evenodd" d="M28.9102 86.0523L31.6296 76.4104L34.5871 77.0103L32.3327 87.7555L28.9102 86.0523Z" fill="#B0A383"/>
<path fill-rule="evenodd" clip-rule="evenodd" d="M38.9804 91.0622V77.9034L37.6251 77.6698L37.0826 77.5762L35.2063 89.1844L36.9507 90.0525L38.9804 91.0622Z" fill="#B0A383"/>
<path fill-rule="evenodd" clip-rule="evenodd" d="M41.0188 0L46.244 2.1763L43.2563 21.7888L41.0188 22.626V0Z" fill="#B0A383"/>
<path fill-rule="evenodd" clip-rule="evenodd" d="M49.0137 3.33032L45.5293 20.9383L48.6644 19.7657L54.0097 5.41082L49.0137 3.33032Z" fill="#B0A383"/>
<path fill-rule="evenodd" clip-rule="evenodd" d="M56.6568 6.51416L51.0063 18.8888L52.3403 18.3899L54.594 17.5475L54.6308 17.5969L61.0971 8.36325L56.6568 6.51416Z" fill="#B0A383"/>
<path fill-rule="evenodd" clip-rule="evenodd" d="M63.5085 9.36792L55.8196 19.1882L57.7932 21.831L68.1419 11.2981L63.5085 9.36792Z" fill="#B0A383"/>
<path fill-rule="evenodd" clip-rule="evenodd" d="M79.9999 16.2363L61.7368 27.109L62.3566 27.9388L61.9763 29.7083L78.6174 24.3033L79.9999 16.2363Z" fill="#B0A383"/>
<path fill-rule="evenodd" clip-rule="evenodd" d="M71.2815 12.6052L58.7632 23.1293L60.6513 25.6572L76.3063 14.6982L71.2815 12.6052Z" fill="#B0A383"/>
<path fill-rule="evenodd" clip-rule="evenodd" d="M77.9416 28.2603L61.5961 31.475L61.1421 33.6122L76.825 34.7774L77.9416 28.2603Z" fill="#B0A383"/>
<path fill-rule="evenodd" clip-rule="evenodd" d="M76.2349 38.2228L62.3406 36.1047L64.2987 39.8877L75.2915 43.731L76.2349 38.2228Z" fill="#B0A383"/>
<path fill-rule="evenodd" clip-rule="evenodd" d="M74.7078 47.1478L65.9222 43.0229L67.1294 45.3555L65.158 46.4116L73.7688 52.6273L74.7078 47.1478Z" fill="#B0A383"/>
<path fill-rule="evenodd" clip-rule="evenodd" d="M71.2409 67.3931L58.2737 50.1006L55.2329 51.8332L69.6247 76.8301V76.8294L71.2409 67.3931Z" fill="#B0A383"/>
<path fill-rule="evenodd" clip-rule="evenodd" d="M73.0658 56.7336L62.5903 47.7881L60.022 49.1633L72.0967 62.3862L73.0658 56.7336Z" fill="#B0A383"/>
<path fill-rule="evenodd" clip-rule="evenodd" d="M65.8751 78.6961L57.716 62.425L55.1638 66.2433L61.3169 80.9623L65.8751 78.6961Z" fill="#B0A383"/>
<path fill-rule="evenodd" clip-rule="evenodd" d="M58.0925 82.5675L53.0788 69.3623L50.4802 73.2506L53.9949 84.6053L58.0925 82.5675Z" fill="#B0A383"/>
<path fill-rule="evenodd" clip-rule="evenodd" d="M51.0891 86.0523L48.3696 76.4104L45.4121 77.0103L47.6665 87.7555L51.0891 86.0523Z" fill="#B0A383"/>
<path fill-rule="evenodd" clip-rule="evenodd" d="M41.0188 91.0622V77.9034L42.3741 77.6698L42.9165 77.5762L44.7921 89.1844L43.0477 90.0525L41.0188 91.0622Z" fill="#B0A383"/>
<path fill-rule="evenodd" clip-rule="evenodd" d="M31.3341 39.1588L21.9745 35.7473L17.4177 44.1282L26.6786 48.8552L31.3341 39.1566V39.1588ZM28.6169 52.731L39.4313 60.1163L28.905 65.4778L25.47 59.9947L28.6169 52.731ZM39.9996 65.186V74.3983L33.7971 73.3812L30.948 68.7383L39.9996 65.1875V65.186ZM39.9996 26.4613V50.9763H29.3774L34.6889 38.7188L39.9996 36.6051L30.0503 32.6129L22.4786 33.5054L21.466 29.0201L27.0869 21.8567L40.0032 26.4606L39.9996 26.4613Z" fill="#B0A383"/>
<path fill-rule="evenodd" clip-rule="evenodd" d="M27.0833 21.8567L30.0512 32.6122L21.4661 29.0216L27.0833 21.8567Z" fill="#B0A383"/>
<path fill-rule="evenodd" clip-rule="evenodd" d="M39.9995 26.4607L30.051 32.6123L39.9995 36.6045V26.4607Z" fill="#B0A383"/>
<path fill-rule="evenodd" clip-rule="evenodd" d="M39.9995 36.6042L29.3774 50.9754H39.9995V36.6042Z" fill="#B0A383"/>
<path fill-rule="evenodd" clip-rule="evenodd" d="M21.4373 42.6946L21.9723 35.7471L31.3342 39.1586L21.4373 42.6946Z" fill="#B0A383"/>
<path fill-rule="evenodd" clip-rule="evenodd" d="M26.6786 48.8572L21.4372 42.6946L21.9723 35.7471L17.4177 44.1302L26.6786 48.8572Z" fill="#B0A383"/>
<path fill-rule="evenodd" clip-rule="evenodd" d="M31.088 60.0417L39.4313 60.1162L28.905 65.4777L31.088 60.0417Z" fill="#B0A383"/>
<path fill-rule="evenodd" clip-rule="evenodd" d="M28.6169 52.731L31.088 60.0418L39.4314 60.1162L28.6169 52.731Z" fill="#B0A383"/>
<path fill-rule="evenodd" clip-rule="evenodd" d="M30.9473 68.7358L39.9996 74.3966L33.7964 73.3796L30.9473 68.7358Z" fill="#B0A383"/>
<path fill-rule="evenodd" clip-rule="evenodd" d="M39.9996 68.8169L30.9473 68.7358L39.9996 74.3966V68.8169Z" fill="#B0A383"/>
<path fill-rule="evenodd" clip-rule="evenodd" d="M39.9995 65.1853V74.3975L46.2019 73.3805L49.0511 68.7375L39.9995 65.1867V65.1853ZM48.6642 39.1588L58.0238 35.7473L62.5821 44.1282L53.3234 48.8575L48.6671 39.1588H48.6642ZM39.9995 26.4606V50.9755H50.6216L45.3102 38.7181L39.9995 36.6044L49.9488 32.6122L57.5212 33.5054L58.5324 29.0201L52.9151 21.8567L39.9995 26.4606ZM51.3814 52.731L40.5677 60.1163L51.094 65.4778L54.5291 59.9947L51.3814 52.731Z" fill="#B0A383"/>
<path fill-rule="evenodd" clip-rule="evenodd" d="M58.5326 29.0217L49.9475 32.6123L57.52 33.5055L58.5326 29.0217Z" fill="#B0A383"/>
<path fill-rule="evenodd" clip-rule="evenodd" d="M39.9995 26.4607L49.9473 32.6123L39.9995 36.6045V26.4607Z" fill="#B0A383"/>
<path fill-rule="evenodd" clip-rule="evenodd" d="M39.9995 36.6042L50.6216 50.9754L45.3102 38.7179L39.9995 36.6042Z" fill="#B0A383"/>
<path fill-rule="evenodd" clip-rule="evenodd" d="M58.5627 42.6946L58.0269 35.7471L48.6643 39.1586L58.5627 42.6946Z" fill="#B0A383"/>
<path fill-rule="evenodd" clip-rule="evenodd" d="M53.3206 48.8572L58.5627 42.6946L58.0269 35.7471L62.5822 44.1302L53.3206 48.8572Z" fill="#B0A383"/>
<path fill-rule="evenodd" clip-rule="evenodd" d="M48.912 60.0417L40.5679 60.1162L51.0942 65.4777L48.912 60.0417Z" fill="#B0A383"/>
<path fill-rule="evenodd" clip-rule="evenodd" d="M51.3816 52.731L48.912 60.0418L40.5679 60.1162L51.3816 52.731Z" fill="#B0A383"/>
<path fill-rule="evenodd" clip-rule="evenodd" d="M49.0511 68.7358L39.9995 74.3966L46.2019 73.3796L49.0511 68.7358Z" fill="#B0A383"/>
<path fill-rule="evenodd" clip-rule="evenodd" d="M39.9995 68.8169L49.0511 68.7358L39.9995 74.3966V68.8169Z" fill="#B0A383"/>
<path fill-rule="evenodd" clip-rule="evenodd" d="M52.9151 21.8567L49.9473 32.6122L39.9995 26.4606L52.9151 21.8567Z" fill="#B0A383"/>
</svg>
