<svg width="291" height="82" viewBox="0 0 291 82" fill="none" xmlns="http://www.w3.org/2000/svg">
<path d="M73.3516 26.6016L74.7188 30.1953L74.4844 30.2344C74.4844 30.2214 74.1198 29.8372 73.3906 29.082C72.6745 28.3268 71.8477 27.7474 70.9102 27.3438C69.9857 26.9271 68.9375 26.7188 67.7656 26.7188C65.7995 26.7188 64.237 27.2852 63.0781 28.418C61.9323 29.5378 61.3594 30.8919 61.3594 32.4805C61.3594 33.5352 61.6263 34.4596 62.1602 35.2539C62.707 36.0352 63.8398 36.7643 65.5586 37.4414C68.5143 38.431 70.5326 39.1797 71.6133 39.6875C72.707 40.1823 73.7552 41.0286 74.7578 42.2266C75.7734 43.4245 76.2812 44.9609 76.2812 46.8359C76.2812 47.6172 76.1901 48.3659 76.0078 49.082C75.8255 49.7852 75.5326 50.4688 75.1289 51.1328C74.7253 51.7839 74.237 52.3828 73.6641 52.9297C73.1042 53.4635 72.5312 53.8737 71.9453 54.1602C71.3594 54.4336 70.4349 54.6419 69.1719 54.7852C67.9089 54.9284 67.0755 55 66.6719 55H58.9961V46.6406H59.2891C59.3151 49.4141 59.9661 51.3477 61.2422 52.4414C62.5182 53.5352 64.5039 54.082 67.1992 54.082C69.6471 54.082 71.5026 53.5026 72.7656 52.3438C74.0417 51.1849 74.6797 49.7917 74.6797 48.1641C74.6797 47.1745 74.4583 46.3346 74.0156 45.6445C73.5729 44.9414 72.9544 44.3294 72.1602 43.8086C71.3659 43.2747 69.862 42.6302 67.6484 41.875C65.4479 41.1068 63.8984 40.4362 63 39.8633C62.1146 39.2773 61.3724 38.4049 60.7734 37.2461C60.1745 36.0742 59.875 34.8828 59.875 33.6719C59.875 31.4453 60.6367 29.5768 62.1602 28.0664C63.6966 26.556 65.7083 25.8008 68.1953 25.8008C69.1589 25.8008 70.2005 25.9115 71.3203 26.1328C72.4401 26.3542 73.0651 26.4974 73.1953 26.5625C73.2474 26.5885 73.2995 26.6016 73.3516 26.6016ZM78.7422 26.5625V26.2305H96.8281V30.1953H96.5352C96.1445 28.724 95.8125 27.8581 95.5391 27.5977C95.2786 27.3372 94.6276 27.207 93.5859 27.207H84.0938V40.1172H92.9023C93.7747 40.1172 94.3281 40.0391 94.5625 39.8828C94.7969 39.7135 94.9206 39.4727 94.9336 39.1602H95.2266V41.875H94.9336C94.8685 41.4974 94.7122 41.2435 94.4648 41.1133C94.2305 40.9831 93.7878 40.918 93.1367 40.918H84.0938V49.8047C84.0938 51.1458 84.2174 52.1159 84.4648 52.7148C84.7122 53.3008 85.1029 53.6719 85.6367 53.8281C86.1836 53.9714 87.0039 54.043 88.0977 54.043H93.1758C94.7904 54.043 95.819 53.9909 96.2617 53.8867C96.7174 53.7695 97.1016 53.5482 97.4141 53.2227C97.7266 52.8841 97.9674 52.1549 98.1367 51.0352H98.4102V55H78.7422V54.7266C79.4062 54.6875 79.9076 54.5638 80.2461 54.3555C80.5977 54.1341 80.7734 53.5742 80.7734 52.6758V29.4336C80.7734 28.3789 80.6823 27.6367 80.5 27.207C80.3177 26.7773 79.7318 26.5625 78.7422 26.5625ZM124.016 26.2305H129.582V26.5234C128.736 26.5495 128.15 26.7318 127.824 27.0703C127.499 27.3958 127.336 28.0924 127.336 29.1602V55.3516L104.387 30.918V52.207C104.387 52.8841 104.439 53.3854 104.543 53.7109C104.647 54.0365 104.797 54.2578 104.992 54.375C105.188 54.4922 105.676 54.6094 106.457 54.7266V55H100.93V54.7266C101.919 54.7266 102.531 54.5508 102.766 54.1992C103.013 53.8477 103.137 53.0078 103.137 51.6797V32.207C103.137 30.5013 102.896 29.1081 102.414 28.0273C101.945 26.9466 100.852 26.4453 99.1328 26.5234V26.2305H104.543L126.105 49.1992V28.8867C126.105 27.793 125.91 27.1289 125.52 26.8945C125.129 26.6471 124.628 26.5234 124.016 26.5234V26.2305ZM132.453 26.5234V26.2305H145.656C149.016 26.2305 151.665 26.4974 153.605 27.0312C155.559 27.5521 157.258 28.3789 158.703 29.5117C160.148 30.6445 161.294 32.0964 162.141 33.8672C162.987 35.625 163.41 37.5911 163.41 39.7656C163.41 41.862 162.967 43.9258 162.082 45.957C161.21 47.9753 160.018 49.7201 158.508 51.1914C156.997 52.6497 155.402 53.6523 153.723 54.1992C152.056 54.7331 149.471 55 145.969 55H132.453V54.7266H132.805C133.508 54.7266 133.97 54.4466 134.191 53.8867C134.413 53.3138 134.523 52.2852 134.523 50.8008V29.8438C134.523 28.2812 134.387 27.3372 134.113 27.0117C133.853 26.6862 133.299 26.5234 132.453 26.5234ZM142.258 26.8359H137.844V49.1602C137.844 50.5664 138.078 51.6146 138.547 52.3047C139.029 52.9818 139.842 53.4766 140.988 53.7891C142.134 54.0885 143.677 54.2383 145.617 54.2383C151.008 54.2383 154.79 52.8581 156.965 50.0977C159.152 47.3242 160.246 44.3034 160.246 41.0352C160.246 37.194 158.749 33.8672 155.754 31.0547C152.772 28.2422 148.273 26.8359 142.258 26.8359ZM180.07 26.6016L181.438 30.1953L181.203 30.2344C181.203 30.2214 180.839 29.8372 180.109 29.082C179.393 28.3268 178.566 27.7474 177.629 27.3438C176.704 26.9271 175.656 26.7188 174.484 26.7188C172.518 26.7188 170.956 27.2852 169.797 28.418C168.651 29.5378 168.078 30.8919 168.078 32.4805C168.078 33.5352 168.345 34.4596 168.879 35.2539C169.426 36.0352 170.559 36.7643 172.277 37.4414C175.233 38.431 177.251 39.1797 178.332 39.6875C179.426 40.1823 180.474 41.0286 181.477 42.2266C182.492 43.4245 183 44.9609 183 46.8359C183 47.6172 182.909 48.3659 182.727 49.082C182.544 49.7852 182.251 50.4688 181.848 51.1328C181.444 51.7839 180.956 52.3828 180.383 52.9297C179.823 53.4635 179.25 53.8737 178.664 54.1602C178.078 54.4336 177.154 54.6419 175.891 54.7852C174.628 54.9284 173.794 55 173.391 55H165.715V46.6406H166.008C166.034 49.4141 166.685 51.3477 167.961 52.4414C169.237 53.5352 171.223 54.082 173.918 54.082C176.366 54.082 178.221 53.5026 179.484 52.3438C180.76 51.1849 181.398 49.7917 181.398 48.1641C181.398 47.1745 181.177 46.3346 180.734 45.6445C180.292 44.9414 179.673 44.3294 178.879 43.8086C178.085 43.2747 176.581 42.6302 174.367 41.875C172.167 41.1068 170.617 40.4362 169.719 39.8633C168.833 39.2773 168.091 38.4049 167.492 37.2461C166.893 36.0742 166.594 34.8828 166.594 33.6719C166.594 31.4453 167.355 29.5768 168.879 28.0664C170.415 26.556 172.427 25.8008 174.914 25.8008C175.878 25.8008 176.919 25.9115 178.039 26.1328C179.159 26.3542 179.784 26.4974 179.914 26.5625C179.966 26.5885 180.018 26.6016 180.07 26.6016ZM208.098 25.2344L206.73 28.7109H206.457C206.509 28.5026 206.535 28.2227 206.535 27.8711C206.535 27.5716 206.424 27.3828 206.203 27.3047C205.995 27.2135 205.656 27.168 205.188 27.168H197.668V51.7969C197.668 52.8125 197.746 53.5091 197.902 53.8867C198.072 54.2513 198.293 54.4857 198.566 54.5898C198.853 54.681 199.309 54.7266 199.934 54.7266V55H192.141V54.7266C193.117 54.6615 193.729 54.4727 193.977 54.1602C194.224 53.8477 194.348 53.1966 194.348 52.207V27.168H187.141C186.411 27.168 185.936 27.2135 185.715 27.3047C185.493 27.3828 185.383 27.5911 185.383 27.9297C185.383 28.099 185.435 28.3594 185.539 28.7109H185.266L183.898 25.2344H184.172C184.406 25.7031 184.634 25.9896 184.855 26.0938C185.09 26.1849 185.585 26.2305 186.34 26.2305H205.461C206.216 26.2305 206.757 26.1849 207.082 26.0938C207.421 25.9896 207.668 25.7031 207.824 25.2344H208.098ZM221.516 41.7578H213.117L208.762 52.6367C208.462 53.418 208.312 53.8997 208.312 54.082C208.312 54.5117 208.632 54.7266 209.27 54.7266V55H204.992V54.7266C205.565 54.7266 206.047 54.5898 206.438 54.3164C206.828 54.0299 207.258 53.3008 207.727 52.1289L218.156 25.8008H218.645L228.918 51.2305C228.918 51.3607 229.178 51.9792 229.699 53.0859C230.233 54.1797 231.04 54.7266 232.121 54.7266V55H225.402V54.7266C226.014 54.7266 226.32 54.4857 226.32 54.0039C226.32 53.6784 226.171 53.1576 225.871 52.4414C225.819 52.3893 225.773 52.3047 225.734 52.1875C225.708 52.0573 225.689 51.9922 225.676 51.9922L221.516 41.7578ZM213.391 40.957H221.164L217.277 31.1523L213.391 40.957ZM233.898 26.5234V26.2305H242.062C244.133 26.2305 245.63 26.276 246.555 26.3672C247.479 26.4583 248.423 26.7643 249.387 27.2852C250.363 27.793 251.099 28.4896 251.594 29.375C252.089 30.2474 252.336 31.3216 252.336 32.5977C252.336 34.056 251.893 35.4492 251.008 36.7773C250.135 38.0924 248.898 39.2057 247.297 40.1172L249.328 43.2422C249.771 44.0234 250.943 45.7357 252.844 48.3789C254.758 51.0221 256.236 52.6367 257.277 53.2227C258.319 53.7956 259.328 54.082 260.305 54.082C261.268 54.082 262.375 53.7109 263.625 52.9688L263.742 53.3594C262.18 54.6354 260.148 55.2734 257.648 55.2734C255.982 55.2734 254.549 54.7852 253.352 53.8086C252.154 52.819 250.07 50.1107 247.102 45.6836C247.076 45.6576 247.062 45.6315 247.062 45.6055L244.172 41.1523L241.613 41.2305H239.289V52.2461C239.289 53.1315 239.406 53.7695 239.641 54.1602C239.875 54.5378 240.441 54.7266 241.34 54.7266V55H233.898V54.7266C234.823 54.6875 235.396 54.4922 235.617 54.1406C235.852 53.7891 235.969 53.0729 235.969 51.9922V29.1211C235.969 28.3789 235.871 27.7669 235.676 27.2852C235.48 26.7904 234.888 26.5365 233.898 26.5234ZM239.289 26.9922V40.4883H242.297C244.667 40.4883 246.424 39.9284 247.57 38.8086C248.716 37.6888 249.289 36.2174 249.289 34.3945C249.289 32.6237 248.723 30.9505 247.59 29.375C246.47 27.7865 244.491 26.9922 241.652 26.9922H239.289ZM281.691 25.2344L280.324 28.7109H280.051C280.103 28.5026 280.129 28.2227 280.129 27.8711C280.129 27.5716 280.018 27.3828 279.797 27.3047C279.589 27.2135 279.25 27.168 278.781 27.168H271.262V51.7969C271.262 52.8125 271.34 53.5091 271.496 53.8867C271.665 54.2513 271.887 54.4857 272.16 54.5898C272.447 54.681 272.902 54.7266 273.527 54.7266V55H265.734V54.7266C266.711 54.6615 267.323 54.4727 267.57 54.1602C267.818 53.8477 267.941 53.1966 267.941 52.207V27.168H260.734C260.005 27.168 259.53 27.2135 259.309 27.3047C259.087 27.3828 258.977 27.5911 258.977 27.9297C258.977 28.099 259.029 28.3594 259.133 28.7109H258.859L257.492 25.2344H257.766C258 25.7031 258.228 25.9896 258.449 26.0938C258.684 26.1849 259.178 26.2305 259.934 26.2305H279.055C279.81 26.2305 280.35 26.1849 280.676 26.0938C281.014 25.9896 281.262 25.7031 281.418 25.2344H281.691Z" fill="url(#paint0_linear)"/>
<path fill-rule="evenodd" clip-rule="evenodd" d="M3.1655 54.5937C-6.18549 69.4225 23.5677 76.0371 21.5455 81.4897C30.1772 73.0392 1.58101 66.1479 3.1655 54.5937Z" fill="url(#paint1_linear)"/>
<path fill-rule="evenodd" clip-rule="evenodd" d="M5.04676 31.8224C-15.5767 55.2829 34.3774 68.2455 23.6079 81.2785C44.9608 60.5242 -2.27709 53.1501 5.04676 31.8224Z" fill="url(#paint2_linear)"/>
<path fill-rule="evenodd" clip-rule="evenodd" d="M39.7093 41.9329C39.8614 41.2982 39.8121 40.6319 39.5684 40.0265C39.6136 40.6315 39.5016 41.238 39.2434 41.7871C38.9852 42.3361 38.5895 42.8091 38.0946 43.1602C37.8725 42.3345 37.4473 41.5775 36.8578 40.9581C36.2683 40.3387 35.5331 39.8767 34.7194 39.614C36.4404 38.4335 38.4357 37.7147 40.5141 37.5265C41.4497 39.4128 40.9115 40.7911 39.7093 41.9329ZM39.4729 27.3053C40.8036 29.2297 42.3199 31.0189 44 32.6473C43.3813 33.0145 41.1731 31.8425 40.9819 32.3606C40.7405 33.0799 42.6569 33.8394 43.497 34.5789C42.1087 38.442 36.9981 35.3535 31.2486 40.0466C31.8019 38.0849 32.8985 36.7619 34.659 36.2237C32.5743 34.6241 30.9571 32.4944 29.976 30.0568C29.4141 31.0554 29.21 32.216 29.3975 33.3465C27.3655 31.9558 25.8945 29.8874 25.2477 27.5115C18.3011 32.1191 22.7326 42.0989 27.4911 45.4389C24.6979 42.3594 23.1287 38.3639 23.0797 34.2066C25.5948 44.9459 35.489 44.8302 40.1821 53.5575C44.2515 61.1027 42.5614 71.8822 24.7648 81.4898C30.645 76.8218 33.3814 70.8309 31.2386 64.659C27.3553 53.4569 9.71469 46.6964 7.66743 34.2921C6.79219 28.9904 8.17044 22.5015 12.3656 19.0106C10.9741 19.578 9.74097 20.4744 8.772 21.6229C7.80304 22.7715 7.12712 24.138 6.80225 25.6051C7.52658 19.8104 10.7559 15.394 15.3534 13.5328L12.0285 4.18184L15.5748 5.3086C15.3392 5.80177 15.2556 6.35382 15.3346 6.89462C15.4135 7.43542 15.6514 7.94054 16.018 8.34583C16.3847 8.75111 16.8636 9.03825 17.3938 9.17077C17.924 9.3033 18.4816 9.27521 18.9958 9.09009C19.5101 8.90497 19.9577 8.57117 20.2817 8.1311C20.6058 7.69103 20.7918 7.16456 20.816 6.61857C20.8402 6.07258 20.7015 5.53172 20.4176 5.06471C20.1337 4.59769 19.7174 4.22561 19.2216 3.99573L21.9832 0.942444L24.7447 3.99573C24.2521 4.22586 23.8386 4.59679 23.5567 5.0617C23.2747 5.5266 23.1368 6.06464 23.1603 6.60787C23.1839 7.15109 23.3679 7.67516 23.6891 8.11389C24.0103 8.55263 24.4542 8.88637 24.965 9.07298C25.4757 9.25958 26.0302 9.29068 26.5586 9.16236C27.087 9.03404 27.5655 8.75204 27.9337 8.35197C28.3019 7.9519 28.5434 7.45171 28.6275 6.91453C28.7117 6.37735 28.6348 5.82727 28.4066 5.33374L31.9528 4.207L29.1712 11.9836C26.5792 11.2368 23.8439 11.1349 21.2035 11.6868L22.8684 13.1405C20.7218 13.3077 18.6726 14.1057 16.9782 15.4342C18.8544 14.2924 21.9731 13.6687 24.1712 13.729L22.6622 12.1294C27.8684 11.8075 34.7345 14.5992 35.0816 20.2682C35.6445 19.8566 36.127 19.3451 36.5051 18.7591C36.3283 19.7191 35.8876 20.6109 35.2325 21.3345C37.7073 24.1263 38.9347 23.6132 39.4729 27.3053ZM26.4398 20.3839C23.1652 20.3839 15.2881 12.9745 18.779 22.8989C16.7116 25.9472 15.2981 32.2248 17.7729 36.4802C16.5657 31.9833 17.5214 27.8938 19.6039 25.3436C18.5005 26.0581 17.6668 27.1201 17.2347 28.3616C18.0848 25.0367 19.6441 23.1303 22.5717 21.747C21.631 21.5156 20.7457 18.8396 18.7236 18.2259C20.2528 17.562 24.2668 21.6112 26.4197 20.3839H26.4398ZM38.4669 29.7198L37.5413 28.1755L37.8884 26.8425C36.6111 26.38 35.263 26.1434 33.9045 26.1433C35.5653 27.1451 37.0975 28.3462 38.4669 29.7198Z" fill="url(#paint3_linear)"/>
<defs>
<linearGradient id="paint0_linear" x1="291" y1="41" x2="58" y2="41" gradientUnits="userSpaceOnUse">
<stop stop-color="#939393"/>
<stop offset="1" stop-color="#EBEBEB"/>
</linearGradient>
<linearGradient id="paint1_linear" x1="23.1728" y1="68.0417" x2="1.3418" y2="68.0417" gradientUnits="userSpaceOnUse">
<stop stop-color="#939393"/>
<stop offset="1" stop-color="#EBEBEB"/>
</linearGradient>
<linearGradient id="paint2_linear" x1="29.1965" y1="56.5504" x2="0" y2="56.5504" gradientUnits="userSpaceOnUse">
<stop stop-color="#939393"/>
<stop offset="1" stop-color="#EBEBEB"/>
</linearGradient>
<linearGradient id="paint3_linear" x1="44" y1="41.2161" x2="6.80225" y2="41.2161" gradientUnits="userSpaceOnUse">
<stop stop-color="#939393"/>
<stop offset="1" stop-color="#EBEBEB"/>
</linearGradient>
</defs>
</svg>
