<svg width="138" height="36" viewBox="0 0 138 36" fill="none" xmlns="http://www.w3.org/2000/svg">
<path d="M38.028 35V0.315997H27.628L19.204 21.272L10.78 0.315997H0.432V35H7.816V10.716L17.592 35H20.816L30.592 10.716V35H38.028ZM66.4444 35V18.776C66.4444 11.548 61.1924 9.26 55.4724 9.26C51.5204 9.26 47.5684 10.508 44.5004 13.212L46.9964 17.632C49.1284 15.656 51.6244 14.668 54.3284 14.668C57.6564 14.668 59.8404 16.332 59.8404 18.88V22.26C58.1764 20.284 55.2124 19.192 51.8844 19.192C47.8804 19.192 43.1484 21.428 43.1484 27.304C43.1484 32.92 47.8804 35.624 51.8844 35.624C55.1604 35.624 58.1244 34.428 59.8404 32.4V35H66.4444ZM54.5364 31.152C51.9364 31.152 49.8044 29.8 49.8044 27.46C49.8044 25.016 51.9364 23.664 54.5364 23.664C56.6684 23.664 58.7484 24.392 59.8404 25.848V28.968C58.7484 30.424 56.6684 31.152 54.5364 31.152Z" fill="#DE0300"/>
<path d="M85.4148 35V31.004H77.3148L85.2708 20.924V17.612H71.2308V21.608H79.0788L71.2308 31.58V35H85.4148ZM97.3853 35.432C100.085 35.432 102.821 34.604 104.549 33.02L102.533 30.068C101.417 31.148 99.3653 31.796 97.8893 31.796C94.9373 31.796 93.1733 29.96 92.8853 27.764H105.809V26.756C105.809 21.068 102.281 17.18 97.0973 17.18C91.8053 17.18 88.0973 21.248 88.0973 26.288C88.0973 31.868 92.0933 35.432 97.3853 35.432ZM101.381 24.668H92.8133C93.0293 22.94 94.2533 20.816 97.0973 20.816C100.121 20.816 101.273 23.012 101.381 24.668ZM113.684 35V23.516C114.44 22.4 116.456 21.536 117.968 21.536C118.472 21.536 118.904 21.572 119.228 21.644V17.18C117.068 17.18 114.908 18.44 113.684 19.988V17.612H109.112V35H113.684ZM137.096 35V23.768C137.096 18.764 133.46 17.18 129.5 17.18C126.764 17.18 124.028 18.044 121.904 19.916L123.632 22.976C125.108 21.608 126.836 20.924 128.708 20.924C131.012 20.924 132.524 22.076 132.524 23.84V26.18C131.372 24.812 129.32 24.056 127.016 24.056C124.244 24.056 120.968 25.604 120.968 29.672C120.968 33.56 124.244 35.432 127.016 35.432C129.284 35.432 131.336 34.604 132.524 33.2V35H137.096ZM128.852 32.336C127.052 32.336 125.576 31.4 125.576 29.78C125.576 28.088 127.052 27.152 128.852 27.152C130.328 27.152 131.768 27.656 132.524 28.664V30.824C131.768 31.832 130.328 32.336 128.852 32.336Z" fill="white"/>
</svg>
