<svg width="100" height="100" viewBox="0 0 100 100" fill="none" xmlns="http://www.w3.org/2000/svg">
<g clip-path="url(#clip0)">
<path d="M66.2891 50.513L100.002 71.8255V28.3005L66.2891 50.513Z" fill="white"/>
<path d="M0 28.3005V71.8255L33.7125 50.513L0 28.3005Z" fill="white"/>
<path d="M93.75 15.625H6.25C3.13125 15.625 0.65625 17.95 0.1875 20.9438L50 53.7625L99.8125 20.9438C99.3438 17.95 96.8688 15.625 93.75 15.625Z" fill="white"/>
<path d="M60.5617 54.287L51.718 60.112C51.193 60.4558 50.5992 60.6245 49.9992 60.6245C49.3992 60.6245 48.8055 60.4558 48.2805 60.112L39.4367 54.2808L0.199219 79.0995C0.680469 82.0683 3.14297 84.3745 6.24922 84.3745H93.7492C96.8555 84.3745 99.318 82.0683 99.7992 79.0995L60.5617 54.287Z" fill="white"/>
</g>
<defs>
<clipPath id="clip0">
<rect width="100" height="100" fill="white"/>
</clipPath>
</defs>
</svg>
