<svg width="30" height="30" viewBox="0 0 30 30" fill="none" xmlns="http://www.w3.org/2000/svg">
<path d="M4.76465 14.8235C4.76465 13.069 6.18664 11.6471 7.94112 11.6471C9.69561 11.6471 11.1176 13.069 11.1176 14.8235C11.1176 16.578 9.69561 18.0001 7.94112 18.0001C6.18664 18.0001 4.76465 16.578 4.76465 14.8235ZM22.0588 18.0001C23.8133 18.0001 25.2352 16.578 25.2352 14.8235C25.2352 13.069 23.8133 11.6471 22.0588 11.6471C20.3043 11.6471 18.8823 13.069 18.8823 14.8235C18.8823 16.578 20.3043 18.0001 22.0588 18.0001ZM23.4705 19.0588H20.647C18.6977 19.0588 17.1176 20.639 17.1176 22.5882V24.5943C17.1176 24.8178 17.0117 25.0281 16.8324 25.1611L15.1433 26.3054C15.0204 26.3887 14.8585 26.3862 14.7385 26.299L13.1679 25.1611C12.9882 25.0277 12.8824 24.8178 12.8824 24.5943V22.5882C12.8824 20.639 11.3022 19.0588 9.35294 19.0588H6.52941C4.58014 19.0588 3 20.639 3 22.5882V27.1871C3 27.6685 3.39036 28.0588 3.87176 28.0588H3.89294C4.37434 28.0588 4.76471 27.6685 4.76471 27.1871V30H11.1176V25.9394L12.8824 27.18L14.2182 28.0683C14.6919 28.3832 15.3081 28.3832 15.7818 28.0683L17.1176 27.18L18.8824 25.9394V30H25.2353V27.1871C25.2353 27.6685 25.6257 28.0588 26.1071 28.0588H26.1282C26.6096 28.0588 27 27.6685 27 27.1871V22.5882C26.9999 20.639 25.4199 19.0588 23.4705 19.0588ZM22.0588 4.94118C22.0588 7.67014 18.7404 9.88235 14.647 9.88235C14.2094 9.88235 13.7827 9.85204 13.3658 9.80367C12.3116 10.9405 10.2352 11.1176 10.2352 11.1176C10.5956 10.4545 10.831 9.81462 10.91 9.2033C8.71407 8.34566 7.23524 6.76028 7.23524 4.94118C7.23524 2.21227 10.5536 0 14.647 0C18.7404 0 22.0588 2.21227 22.0588 4.94118ZM12.7058 4.94118C12.7058 4.35633 12.2319 3.88235 11.647 3.88235C11.0622 3.88235 10.5882 4.35638 10.5882 4.94118C10.5882 5.52597 11.0622 6 11.647 6C12.2319 6 12.7058 5.52602 12.7058 4.94118ZM15.8823 4.94118C15.8823 4.35633 15.4083 3.88235 14.8235 3.88235C14.2386 3.88235 13.7647 4.35633 13.7647 4.94118C13.7647 5.52602 14.2386 6 14.8235 6C15.4083 6 15.8823 5.52602 15.8823 4.94118ZM19.0588 4.94118C19.0588 4.35633 18.5847 3.88235 17.9999 3.88235C17.4152 3.88235 16.9411 4.35638 16.9411 4.94118C16.9411 5.52597 17.4151 6 17.9999 6C18.5847 6 19.0588 5.52602 19.0588 4.94118Z" fill="#051828"/>
</svg>
