<svg width="26" height="30" viewBox="0 0 26 30" fill="none" xmlns="http://www.w3.org/2000/svg">
<path d="M20.9254 0H5.07509C2.62611 0 0.65332 1.97279 0.65332 4.42177V25.5442C0.65332 27.9932 2.62611 30 5.07509 30H20.9254C23.3744 30 25.3472 28.0272 25.3472 25.5782V4.42177C25.3472 1.97279 23.3744 0 20.9254 0ZM9.3608 8.36735H16.6737C17.252 8.36735 17.6941 8.80952 17.6941 9.38775C17.6941 9.96599 17.252 10.4082 16.6737 10.4082H9.3608C8.78257 10.4082 8.34039 9.96599 8.34039 9.38775C8.34039 8.80952 8.78257 8.36735 9.3608 8.36735ZM19.2588 21.6327H6.70774C6.12951 21.6327 5.68733 21.1905 5.68733 20.6122C5.68733 20.034 6.16352 19.5918 6.70774 19.5918H19.2588C19.837 19.5918 20.2792 20.034 20.2792 20.6122C20.2792 21.1905 19.837 21.6327 19.2588 21.6327ZM19.2588 16.0204H6.70774C6.12951 16.0204 5.68733 15.5782 5.68733 15C5.68733 14.4218 6.16352 13.9796 6.70774 13.9796H19.2588C19.837 13.9796 20.2792 14.4218 20.2792 15C20.2792 15.5782 19.837 16.0204 19.2588 16.0204Z" fill="#051828"/>
</svg>
