<svg width="26" height="30" viewBox="0 0 26 30" fill="none" xmlns="http://www.w3.org/2000/svg">
<path d="M5.15347 15C5.15347 15.6374 4.63702 16.1538 3.99962 16.1538H1.69193C1.05453 16.1538 0.538086 15.6374 0.538086 15C0.538086 14.3626 1.05453 13.8462 1.69193 13.8462H3.99962C4.63709 13.8462 5.15347 14.3626 5.15347 15ZM5.15347 7.61538C5.15347 6.97799 4.63702 6.46154 3.99962 6.46154H1.69193C1.05453 6.46154 0.538086 6.97799 0.538086 7.61538C0.538086 8.25278 1.05453 8.76923 1.69193 8.76923H3.99962C4.63709 8.76923 5.15347 8.25278 5.15347 7.61538ZM5.15347 22.3847C5.15347 21.7472 4.63702 21.2308 3.99962 21.2308H1.69193C1.05453 21.2308 0.538086 21.7472 0.538086 22.3847C0.538086 23.0221 1.05453 23.5385 1.69193 23.5385H3.99962C4.63709 23.5385 5.15347 23.022 5.15347 22.3847ZM25.4612 3.69231V26.3077C25.4612 28.3468 23.808 30 21.769 30H5.61514C3.57609 30 1.92284 28.3468 1.92284 26.3077V24.4615H3.99976C5.14485 24.4615 6.07668 23.5296 6.07668 22.3846C6.07668 21.2395 5.14485 20.3076 3.99976 20.3076H1.9227V17.0768H3.99962C5.14471 17.0768 6.07655 16.145 6.07655 14.9999C6.07655 13.8548 5.14471 12.9229 3.99962 12.9229H1.9227V9.69217H3.99962C5.14471 9.69217 6.07655 8.76034 6.07655 7.61525C6.07655 6.47016 5.14471 5.53833 3.99962 5.53833H1.9227V3.69231C1.9227 1.65326 3.57596 0 5.61501 0H21.7689C23.8079 0 25.4612 1.65319 25.4612 3.69231ZM10.8239 10.9449C10.8239 12.9111 12.4181 14.5052 14.3842 14.5052C16.3505 14.5052 17.9445 12.9111 17.9445 10.9449C17.9445 8.97876 16.3505 7.38455 14.3842 7.38455C12.4182 7.38462 10.8239 8.97876 10.8239 10.9449ZM19.9227 19.6481C19.9227 17.4637 18.1513 15.6922 15.9668 15.6922H12.8021C10.6172 15.6922 8.84578 17.4637 8.84578 19.6481V21.2308H19.9227V19.6481Z" fill="#051828"/>
</svg>
