<svg width="30" height="30" viewBox="0 0 30 30" fill="none" xmlns="http://www.w3.org/2000/svg">
<path d="M16.6773 14.8363L17.6946 14.004H16.3641C15.9946 14.004 15.6645 13.7728 15.5382 13.4254L15.0006 11.947L14.463 13.4254C14.3367 13.7728 14.0066 14.004 13.6371 14.004H12.3066L13.324 14.8363C13.6129 15.0728 13.721 15.466 13.5934 15.8168L12.9487 17.5897L14.5348 16.5984C14.8197 16.4203 15.1814 16.4203 15.4664 16.5984L17.0525 17.5897L16.4079 15.8168C16.2802 15.4659 16.3883 15.0727 16.6773 14.8363Z" fill="#051828"/>
<path d="M15.0006 6.03555C10.0576 6.03555 6.03613 10.057 6.03613 15C6.03613 19.943 10.0576 23.9645 15.0006 23.9645C19.9436 23.9645 23.9651 19.943 23.9651 15C23.9651 10.057 19.9436 6.03555 15.0006 6.03555ZM20.7131 13.8053L18.2728 15.802L19.5764 19.387C19.7858 19.9629 19.3563 20.5662 18.7503 20.5662C18.5893 20.5662 18.4277 20.5221 18.2846 20.4326L15.0006 18.3801L11.7165 20.4326C11.3984 20.6314 10.9893 20.6064 10.6977 20.3705C10.4062 20.1344 10.2965 19.7395 10.4247 19.387L11.7283 15.802L9.28795 13.8053C9.00045 13.57 8.89188 13.1795 9.01679 12.8296C9.14165 12.4798 9.47304 12.2462 9.84451 12.2462H13.0214L14.1746 9.07492C14.3009 8.72759 14.631 8.49639 15.0006 8.49639C15.3701 8.49639 15.7002 8.72759 15.8265 9.07492L16.9797 12.2462H20.1566C20.5281 12.2462 20.8595 12.4798 20.9843 12.8296C21.1092 13.1795 21.0007 13.57 20.7131 13.8053Z" fill="#051828"/>
<path d="M28.9987 11.9945C27.965 10.608 27.2719 8.96012 26.9947 7.22898C26.6521 5.08917 24.9724 3.35944 22.7731 3.0073C21.0419 2.73011 19.394 2.03709 18.0075 1.0033C16.2277 -0.323792 13.8042 -0.344709 11.9962 1.0033C10.6098 2.03709 8.9619 2.73011 7.23076 3.0073C5.091 3.34989 3.36127 5.02958 3.00913 7.22893C2.732 8.96007 2.03898 10.6079 1.00513 11.9945C-0.321961 13.7743 -0.342878 16.1978 1.00513 18.0057C2.03898 19.3923 2.73194 21.0401 3.00913 22.7712C3.35178 24.9111 5.03153 26.6408 7.23082 26.9929C8.96196 27.27 10.6098 27.9631 11.9963 28.9969C13.7762 30.324 16.1997 30.3449 18.0076 28.9969C19.3941 27.9631 21.042 27.2701 22.7731 26.9929C24.9129 26.6503 26.6427 24.9706 26.9948 22.7712C27.272 21.04 27.965 19.3921 28.9988 18.0057C28.9988 17.9619 30.0014 16.8656 30.0014 15.0001C30.0014 13.9134 29.6547 12.8741 28.9987 11.9945ZM15.002 25.7223C9.08969 25.7223 4.27975 20.9124 4.27975 15.0001C4.27975 9.08785 9.08969 4.27791 15.002 4.27791C20.9142 4.27791 25.7242 9.08785 25.7242 15.0001C25.7242 20.9124 20.9142 25.7223 15.002 25.7223Z" fill="#051828"/>
</svg>
