<svg width="28" height="30" viewBox="0 0 28 30" fill="none" xmlns="http://www.w3.org/2000/svg">
<path d="M26.7403 22.3667H12.8112C12.1798 22.3667 11.6689 22.8777 11.6689 23.509V28.1303C11.6689 28.7616 12.1798 29.2725 12.8112 29.2725H26.7403C27.3718 29.2725 27.8826 28.7617 27.8826 28.1303V23.509C27.8825 22.8777 27.3718 22.3667 26.7403 22.3667Z" fill="#051828"/>
<path d="M5.11754 21.9532C4.67109 21.5067 3.94891 21.5067 3.50252 21.9532L0.453929 25.0017C0.00754438 25.4481 0.00754438 26.1702 0.453929 26.6168L3.50252 29.6651C3.94884 30.1118 4.67103 30.1118 5.11754 29.6651L8.16594 26.6168C8.61245 26.1702 8.61245 25.4482 8.16594 25.0017L5.11754 21.9532Z" fill="#051828"/>
<path d="M26.7403 11.5576H12.8112C12.1798 11.5576 11.6689 12.0686 11.6689 12.7V17.3212C11.6689 17.9525 12.1798 18.4634 12.8112 18.4634H26.7403C27.3718 18.4634 27.8826 17.9526 27.8826 17.3212V12.7C27.8825 12.0686 27.3718 11.5576 26.7403 11.5576Z" fill="#051828"/>
<path d="M5.11754 11.1441C4.67109 10.6976 3.94891 10.6976 3.50252 11.1441L0.453929 14.1926C0.00754438 14.6391 0.00754438 15.3611 0.453929 15.8077L3.50252 18.856C3.94884 19.3026 4.67103 19.3026 5.11754 18.856L8.16594 15.8077C8.61245 15.3611 8.61245 14.6391 8.16594 14.1926L5.11754 11.1441Z" fill="#051828"/>
<path d="M26.7403 0.748657H12.8112C12.1798 0.748657 11.6689 1.25949 11.6689 1.89083V6.51219C11.6689 7.14353 12.1798 7.65443 12.8112 7.65443H26.7403C27.3718 7.65443 27.8826 7.14359 27.8826 6.51219V1.89077C27.8825 1.25949 27.3718 0.748657 26.7403 0.748657Z" fill="#051828"/>
<path d="M5.11845 0.335004C4.672 -0.111627 3.94982 -0.111627 3.50344 0.335004L0.454906 3.38329C0.00852095 3.82998 0.00852095 4.55204 0.454906 4.99849L3.5035 8.04696C3.94982 8.49341 4.672 8.49341 5.11851 8.04696L8.16692 4.99849C8.61343 4.55204 8.61343 3.82998 8.16692 3.38329L5.11845 0.335004Z" fill="#051828"/>
</svg>
