<svg width="30" height="30" viewBox="0 0 30 30" fill="none" xmlns="http://www.w3.org/2000/svg">
<path d="M29.1346 12.4038C29.6126 12.4038 30 12.0163 30 11.5385V6.92308C30 6.44513 29.6125 6.05771 29.1346 6.05771H10.0962V10.3846C10.0962 10.8626 9.70869 11.25 9.2308 11.25C8.75291 11.25 8.36543 10.8625 8.36543 10.3846V6.05771H0.86543C0.387481 6.05771 0 6.44513 0 6.92308V11.5385C0 12.0164 0.38748 12.4038 0.865371 12.4038C2.29688 12.4038 3.46154 13.5684 3.46154 15C3.46154 16.4316 2.29693 17.5962 0.865371 17.5962C0.38748 17.5962 0 17.9836 0 18.4615V23.0769C0 23.5549 0.38748 23.9423 0.865371 23.9423H8.36537V19.6154C8.36537 19.1374 8.75285 18.75 9.23074 18.75C9.70863 18.75 10.0961 19.1375 10.0961 19.6154V23.9423H29.1346C29.6125 23.9423 29.9999 23.5548 29.9999 23.0769V18.4615C29.9999 17.9836 29.6125 17.5962 29.1346 17.5962C27.7031 17.5962 26.5384 16.4316 26.5384 15C26.5384 13.5684 27.7031 12.4038 29.1346 12.4038ZM10.0962 16.1538C10.0962 16.6318 9.70869 17.0192 9.2308 17.0192C8.75291 17.0192 8.36543 16.6317 8.36543 16.1538V13.8461C8.36543 13.3682 8.75291 12.9807 9.2308 12.9807C9.70869 12.9807 10.0962 13.3682 10.0962 13.8461V16.1538Z" fill="white"/>
</svg>
