<svg width="30" height="30" viewBox="0 0 30 30" fill="none" xmlns="http://www.w3.org/2000/svg">
<g clip-path="url(#clip0)">
<path d="M14.7844 14.4511C16.7697 14.4511 18.4888 13.739 19.8935 12.3342C21.2981 10.9295 22.0102 9.21086 22.0102 7.22531C22.0102 5.24046 21.2981 3.52156 19.8933 2.11646C18.4884 0.712049 16.7695 0 14.7844 0C12.7988 0 11.0802 0.712049 9.67552 2.11669C8.27087 3.52133 7.55859 5.24023 7.55859 7.22531C7.55859 9.21086 8.27087 10.9298 9.67575 12.3344C11.0806 13.7388 12.7995 14.4511 14.7844 14.4511Z" fill="white"/>
<path d="M27.4294 23.0685C27.3889 22.4839 27.307 21.8462 27.1864 21.1729C27.0646 20.4945 26.9078 19.8531 26.7201 19.267C26.5263 18.6611 26.2626 18.0628 25.9367 17.4895C25.5984 16.8944 25.201 16.3762 24.7552 15.9498C24.2889 15.5037 23.7181 15.1451 23.058 14.8835C22.4002 14.6232 21.6712 14.4914 20.8914 14.4914C20.5852 14.4914 20.289 14.617 19.717 14.9894C19.365 15.219 18.9532 15.4845 18.4937 15.7781C18.1007 16.0285 17.5683 16.2631 16.9107 16.4755C16.2691 16.6831 15.6178 16.7884 14.9748 16.7884C14.3319 16.7884 13.6807 16.6831 13.0385 16.4755C12.3816 16.2634 11.8492 16.0288 11.4567 15.7784C11.0014 15.4875 10.5894 15.222 10.2322 14.9892C9.66087 14.6168 9.36447 14.4911 9.05823 14.4911C8.2782 14.4911 7.54944 14.6232 6.89186 14.8837C6.23222 15.1448 5.66116 15.5035 5.19447 15.95C4.74884 16.3767 4.35127 16.8946 4.01344 17.4895C3.68774 18.0628 3.42407 18.6609 3.22998 19.2672C3.04253 19.8534 2.88574 20.4945 2.76398 21.1729C2.64336 21.8453 2.56142 22.4832 2.5209 23.0691C2.48108 23.6432 2.46094 24.239 2.46094 24.8407C2.46094 26.4067 2.95876 27.6745 3.94043 28.6094C4.90997 29.5321 6.19286 30.0001 7.75291 30.0001H22.1981C23.7582 30.0001 25.0406 29.5323 26.0104 28.6094C26.9923 27.6751 27.4901 26.4071 27.4901 24.8405C27.4899 24.236 27.4695 23.6397 27.4294 23.0685Z" fill="white"/>
</g>
<defs>
<clipPath id="clip0">
<rect width="30" height="30" fill="white"/>
</clipPath>
</defs>
</svg>
