<svg width="30" height="30" viewBox="0 0 30 30" fill="none" xmlns="http://www.w3.org/2000/svg">
<g clip-path="url(#clip0)">
<path d="M29.1912 13.0486C29.1905 13.0479 29.1898 13.0472 29.1891 13.0465L16.9515 0.809326C16.4299 0.287476 15.7363 0 14.9987 0C14.261 0 13.5675 0.287247 13.0456 0.809097L0.814392 13.0401C0.810273 13.0442 0.806153 13.0486 0.802033 13.0527C-0.269134 14.13 -0.267303 15.878 0.807297 16.9526C1.29825 17.4438 1.94667 17.7283 2.63995 17.758C2.66811 17.7608 2.69649 17.7621 2.7251 17.7621H3.21285V26.768C3.21285 28.55 4.66281 30 6.44534 30H11.2331C11.7183 30 12.112 29.6066 12.112 29.1211V22.0605C12.112 21.2473 12.7735 20.5859 13.5867 20.5859H16.4106C17.2238 20.5859 17.8853 21.2473 17.8853 22.0605V29.1211C17.8853 29.6066 18.2788 30 18.7642 30H23.552C25.3345 30 26.7845 28.55 26.7845 26.768V17.7621H27.2367C27.9742 17.7621 28.6677 17.4749 29.1898 16.953C30.2655 15.8766 30.266 14.1257 29.1912 13.0486Z" fill="white"/>
</g>
<defs>
<clipPath id="clip0">
<rect width="30" height="30" fill="white"/>
</clipPath>
</defs>
</svg>
