<svg width="30" height="30" viewBox="0 0 30 30" fill="none" xmlns="http://www.w3.org/2000/svg">
<path d="M24.7695 29.7425L19.6415 24.6153L17.1559 27.101C16.9413 27.3156 16.6297 27.404 16.3327 27.3353C16.0358 27.265 15.7971 27.0469 15.701 26.7577L10.7289 11.842C10.6233 11.5262 10.7057 11.1777 10.9409 10.9425C11.1752 10.7082 11.5245 10.6223 11.8404 10.7305L26.7561 15.7027C27.0454 15.7988 27.2633 16.0374 27.3337 16.3344C27.4033 16.6305 27.3148 16.942 27.0994 17.1575L24.6137 19.6431L29.7409 24.7711C30.0842 25.1144 30.0842 25.6706 29.7409 26.0139L26.0124 29.7424C25.669 30.0858 25.1128 30.0858 24.7695 29.7425Z" fill="white"/>
<path d="M11.4258 7.03125C10.94 7.03125 10.5469 6.63814 10.5469 6.15234V0.878906C10.5469 0.393105 10.94 0 11.4258 0C11.9116 0 12.3047 0.393105 12.3047 0.878906V6.15234C12.3047 6.63814 11.9116 7.03125 11.4258 7.03125Z" fill="white"/>
<path d="M7.0767 8.31873L3.34732 4.58935C3.00402 4.24605 3.00402 3.68982 3.34732 3.34652C3.69062 3.00322 4.24685 3.00322 4.59015 3.34652L8.31947 7.07584C8.66277 7.41914 8.66277 7.97537 8.31947 8.31867C7.97617 8.66203 7.42 8.66203 7.0767 8.31873Z" fill="white"/>
<path d="M3.34732 19.505C3.00402 19.1617 3.00402 18.6055 3.34732 18.2622L7.07664 14.5329C7.41994 14.1896 7.97617 14.1896 8.31947 14.5329C8.66277 14.8762 8.66277 15.4324 8.31947 15.7757L4.59015 19.505C4.24685 19.8483 3.69068 19.8483 3.34732 19.505Z" fill="white"/>
<path d="M14.5348 8.31873C14.1915 7.97543 14.1915 7.4192 14.5348 7.0759L18.2641 3.34659C18.6074 3.00329 19.1637 3.00329 19.507 3.34659C19.8503 3.68989 19.8503 4.24612 19.507 4.58942L15.7777 8.31873C15.4344 8.66204 14.8782 8.66204 14.5348 8.31873Z" fill="white"/>
<path d="M6.15234 12.3047H0.878906C0.393105 12.3047 0 11.9116 0 11.4258C0 10.94 0.393105 10.5469 0.878906 10.5469H6.15234C6.63814 10.5469 7.03125 10.94 7.03125 11.4258C7.03125 11.9116 6.63814 12.3047 6.15234 12.3047Z" fill="white"/>
</svg>
