<svg width="30" height="30" viewBox="0 0 30 30" fill="none" xmlns="http://www.w3.org/2000/svg">
<g clip-path="url(#clip0)">
<path d="M29.9038 13.2723C29.84 13.1197 29.7488 12.981 29.6325 12.8647L25.8838 9.11596C25.395 8.62846 24.605 8.62846 24.1163 9.11596C23.6276 9.60469 23.6276 10.3959 24.1163 10.8834L25.7325 12.4997H18.75C18.0588 12.4997 17.5 13.0597 17.5 13.7497C17.5 14.4397 18.0588 14.9997 18.75 14.9997H25.7325L24.1162 16.6159C23.6275 17.1046 23.6275 17.8959 24.1162 18.3834C24.36 18.6284 24.68 18.7497 25 18.7497C25.32 18.7497 25.64 18.6284 25.8838 18.3834L29.6325 14.6346C29.7488 14.5196 29.84 14.3808 29.9038 14.2271C30.03 13.9222 30.03 13.5772 29.9038 13.2723Z" fill="white"/>
<path d="M21.25 17.5C20.5587 17.5 20 18.06 20 18.75V25H15V4.99998C15 4.44873 14.6375 3.96123 14.1087 3.8025L9.76746 2.50002H20V8.75004C20 9.44004 20.5587 10 21.25 10C21.9412 10 22.4999 9.44004 22.4999 8.75004V1.25004C22.4999 0.55998 21.9412 0 21.25 0H1.24998C1.20498 0 1.16496 0.01875 1.12125 0.0237305C1.06248 0.03 1.00875 0.0399609 0.9525 0.0537305C0.82125 0.0874805 0.70248 0.13875 0.591269 0.208711C0.563789 0.22623 0.530039 0.227461 0.503789 0.247441C0.493711 0.255 0.489961 0.26877 0.479941 0.27627C0.343711 0.38373 0.22998 0.51498 0.14748 0.67125C0.129961 0.705 0.126211 0.74127 0.1125 0.77625C0.0724805 0.87123 0.0287695 0.96375 0.0137695 1.06875C0.0075 1.10625 0.01875 1.14123 0.0175195 1.1775C0.0162891 1.20252 0 1.22502 0 1.24998V26.25C0 26.8463 0.42123 27.3588 1.005 27.475L13.505 29.975C13.5862 29.9926 13.6687 30.0001 13.75 30.0001C14.0362 30.0001 14.3174 29.9013 14.5424 29.7163C14.8312 29.4788 14.9999 29.125 14.9999 28.75V27.5H21.25C21.9412 27.5 22.4999 26.9401 22.4999 26.2501V18.75C22.4999 18.06 21.9412 17.5 21.25 17.5Z" fill="white"/>
</g>
<defs>
<clipPath id="clip0">
<rect width="30" height="30" fill="white"/>
</clipPath>
</defs>
</svg>
