<svg width="30" height="30" viewBox="0 0 30 30" fill="none" xmlns="http://www.w3.org/2000/svg">
<path d="M25.6677 16.0149H23.3477C23.5841 16.6624 23.7133 17.3611 23.7133 18.0893V26.8579C23.7133 27.1616 23.6605 27.453 23.5643 27.7241H27.4C28.8327 27.7241 29.9984 26.5584 29.9984 25.1257V20.3455C29.9984 17.9576 28.0557 16.0149 25.6677 16.0149Z" fill="white"/>
<path d="M6.28507 18.0894C6.28507 17.3611 6.41427 16.6624 6.65075 16.0149H4.33067C1.94274 16.0149 0 17.9577 0 20.3456V25.1257C0 26.5585 1.16561 27.7241 2.5984 27.7241H6.43407C6.33792 27.453 6.28507 27.1616 6.28507 26.858V18.0894Z" fill="white"/>
<path d="M17.6503 13.7587H12.3463C9.95836 13.7587 8.01562 15.7015 8.01562 18.0894V26.858C8.01562 27.3363 8.4034 27.7241 8.88176 27.7241H21.1149C21.5932 27.7241 21.981 27.3363 21.981 26.858V18.0894C21.981 15.7015 20.0383 13.7587 17.6503 13.7587Z" fill="white"/>
<path d="M15.0011 2.27579C12.1293 2.27579 9.79297 4.61216 9.79297 7.48402C9.79297 9.43197 10.8681 11.1332 12.4559 12.0265C13.209 12.4501 14.0772 12.6922 15.0011 12.6922C15.925 12.6922 16.7933 12.4501 17.5464 12.0265C19.1342 11.1332 20.2093 9.43191 20.2093 7.48402C20.2093 4.61222 17.8729 2.27579 15.0011 2.27579Z" fill="white"/>
<path d="M5.85206 7.13025C3.7043 7.13025 1.95703 8.87752 1.95703 11.0253C1.95703 13.173 3.7043 14.9203 5.85206 14.9203C6.39686 14.9203 6.91565 14.8074 7.38692 14.6046C8.20173 14.2538 8.87357 13.6328 9.28929 12.855C9.58109 12.3091 9.74709 11.6863 9.74709 11.0253C9.74709 8.87758 7.99982 7.13025 5.85206 7.13025Z" fill="white"/>
<path d="M24.145 7.13025C21.9973 7.13025 20.25 8.87752 20.25 11.0253C20.25 11.6863 20.416 12.3091 20.7078 12.855C21.1235 13.6329 21.7954 14.2539 22.6102 14.6046C23.0814 14.8074 23.6002 14.9203 24.145 14.9203C26.2928 14.9203 28.0401 13.173 28.0401 11.0253C28.0401 8.87752 26.2928 7.13025 24.145 7.13025Z" fill="white"/>
</svg>
