<svg width="30" height="30" viewBox="0 0 30 30" fill="none" xmlns="http://www.w3.org/2000/svg">
<path d="M22.2596 11.1722C21.7925 12.9579 20.7026 13.3513 20.1211 13.4302C19.7629 14.1464 18.9755 15.61 18.1878 16.3454C17.873 16.6392 17.4638 16.8872 16.9718 17.0825C16.3436 17.3318 15.6801 17.4582 15.0001 17.4582C14.32 17.4582 13.6565 17.3318 13.0283 17.0825C12.5364 16.8874 12.1272 16.6394 11.8123 16.3454C11.0245 15.6101 10.2371 14.1464 9.87889 13.4302C9.29751 13.3513 8.20761 12.9581 7.74056 11.1722C7.49076 10.2172 7.55472 9.43874 7.93078 8.85832C8.09699 8.6018 8.29847 8.42708 8.48609 8.30877C8.48664 8.11813 8.4946 7.87946 8.5167 7.60798C8.17893 7.13859 7.7197 6.12583 8.28845 4.48653C8.8896 2.75349 10.2488 2.48585 10.9048 2.46266C11.1266 2.05036 11.5456 1.46499 12.3066 0.926842C13.1512 0.329123 14.2541 0 15.4121 0C16.837 0 18.2708 0.501507 19.5585 1.45031C21.6462 2.98859 21.4674 6.40088 21.4162 7.02042C21.4919 7.53977 21.5129 7.99022 21.5139 8.30864C21.7015 8.42694 21.903 8.60166 22.0692 8.85818C22.4453 9.43874 22.5092 10.2171 22.2596 11.1722ZM28.3652 24.4701V29.3138C28.3652 29.6927 28.0579 30 27.679 30H2.32101C1.94207 30 1.63477 29.6927 1.63477 29.3138V24.4701C1.63477 22.4858 2.82526 20.7273 4.66769 19.9903L10.6675 17.5904C10.8402 17.5215 11.0334 17.5252 11.2032 17.6015C11.3728 17.6775 11.5045 17.8193 11.5676 17.9942L13.076 22.1642L13.3746 21.3056L12.8995 20.144C12.813 19.9324 12.8374 19.6915 12.9649 19.5017C13.0924 19.3119 13.306 19.198 13.5347 19.198H16.4655C16.6941 19.198 16.9078 19.3119 17.0352 19.5017C17.1627 19.6915 17.1871 19.9324 17.1007 20.144L16.6255 21.3056L16.9242 22.1642L18.4325 17.9942C18.4957 17.8193 18.6273 17.6775 18.7969 17.6015C18.9667 17.5253 19.1601 17.5216 19.3326 17.5904L25.3324 19.9903C27.1749 20.7273 28.3652 22.4858 28.3652 24.4701ZM24.7122 24.9967C24.7122 24.6178 24.4049 24.3105 24.026 24.3105H19.4185C19.0396 24.3105 18.7323 24.6178 18.7323 24.9967V27.1364C18.7323 27.5154 19.0396 27.8227 19.4185 27.8227H24.026C24.4049 27.8227 24.7122 27.5154 24.7122 27.1364V24.9967Z" fill="#051828"/>
</svg>
