<svg width="31" height="31" viewBox="0 0 31 31" fill="none" xmlns="http://www.w3.org/2000/svg">
<path d="M29.683 17.2673L29.1079 16.471C28.6276 15.8137 28.6212 14.9226 29.0889 14.2526L29.6514 13.45C30.3087 12.5146 29.999 11.219 29.0005 10.6755L28.1409 10.2078C27.4268 9.82225 27.0349 9.0196 27.1739 8.21695L27.3383 7.24366C27.5279 6.11868 26.6936 5.07587 25.556 5.03163L24.5827 4.98739C23.7737 4.95579 23.0785 4.39962 22.851 3.61593L22.5793 2.66792C22.2632 1.56823 21.0624 0.999418 20.0259 1.45446L19.1285 1.84631C18.3827 2.16863 17.5169 1.97903 16.9797 1.36598L16.3287 0.632853C15.5703 -0.220358 14.2431 -0.207718 13.5036 0.651813L12.8653 1.39758C12.3344 2.01063 11.4749 2.21919 10.7228 1.90951L9.81901 1.53662C8.76987 1.10054 7.5817 1.68831 7.27834 2.79432L7.01921 3.74233C6.79801 4.53866 6.10912 5.10115 5.30647 5.14539L4.33318 5.20227C3.20188 5.26547 2.38027 6.32093 2.58884 7.43958L2.7658 8.40655C2.91116 9.2092 2.53196 10.0182 1.82411 10.41L0.970895 10.8903C-0.0213577 11.4465 -0.305761 12.7484 0.364167 13.6712L0.939295 14.4675C1.41962 15.1248 1.42594 16.0159 0.958255 16.6859L0.383127 17.4948C-0.274161 18.4302 0.035523 19.7258 1.0341 20.2693L1.89363 20.737C2.6078 21.1226 2.99964 21.9252 2.8606 22.7279L2.7026 23.6885C2.51299 24.8135 3.34725 25.8563 4.48486 25.9005L5.45815 25.9448C6.26712 25.9764 6.96233 26.5325 7.18985 27.3162L7.46162 28.2642C7.77762 29.3639 8.97844 29.9328 10.0149 29.4777L10.9124 29.0859C11.6582 28.7635 12.524 28.9531 13.0612 29.5599L13.7122 30.293C14.4706 31.1462 15.7978 31.1336 16.5373 30.274L17.1756 29.5283C17.7065 28.9152 18.566 28.7067 19.3181 29.0163L20.2219 29.3892C21.271 29.8253 22.4592 29.2375 22.7625 28.1315L23.0217 27.1835C23.2365 26.3998 23.9254 25.8373 24.7344 25.7868L25.7077 25.7299C26.839 25.6667 27.6606 24.6112 27.452 23.4863L27.2751 22.5193C27.1297 21.7166 27.5089 20.9077 28.2168 20.5158L29.07 20.0355C30.0685 19.4983 30.3529 18.19 29.683 17.2673ZM15.0204 24.8704C9.81269 24.8704 5.59087 20.617 5.59087 15.3713C5.59087 10.1256 9.81269 5.86588 15.0204 5.86588C20.2282 5.86588 24.45 10.1193 24.45 15.365C24.45 20.6106 20.2282 24.8704 15.0204 24.8704Z" fill="white"/>
<path d="M20.5629 12.9697L17.0363 12.7106L15.7028 9.41149C15.45 8.79212 14.5778 8.79212 14.3313 9.41149L12.9978 12.7106L9.47116 12.9697C8.80755 13.0203 8.53579 13.8545 9.04772 14.2843L11.7464 16.5785L10.8995 20.0355C10.7415 20.6865 11.443 21.2048 12.0118 20.8508L15.0139 18.9738L18.0159 20.8508C18.5784 21.2048 19.2862 20.6865 19.1282 20.0355L18.2814 16.5785L20.98 14.2843C21.4983 13.8545 21.2265 13.0203 20.5629 12.9697Z" fill="white"/>
</svg>
