<svg width="30" height="30" viewBox="0 0 30 30" fill="none" xmlns="http://www.w3.org/2000/svg">
<path d="M29.2895 25.6595L22.3923 18.7618C23.5642 16.8961 24.2444 14.691 24.2444 12.3245C24.2444 5.62934 18.8168 0.202553 12.1219 0.202553C5.42704 0.202553 0 5.62934 0 12.3245C0 19.0199 5.42679 24.4462 12.1219 24.4462C14.6973 24.4462 17.0827 23.641 19.0457 22.2729L25.8608 29.0885C26.3343 29.5616 26.9551 29.7972 27.5752 29.7972C28.196 29.7972 28.816 29.5616 29.2903 29.0885C30.2367 28.1411 30.2367 26.6066 29.2895 25.6595ZM12.1219 20.5188C7.59679 20.5188 3.92809 16.8504 3.92809 12.325C3.92809 7.7996 7.59679 4.13089 12.1219 4.13089C16.6473 4.13089 20.3158 7.7996 20.3158 12.325C20.3158 16.8504 16.6473 20.5188 12.1219 20.5188Z" fill="#ffffff"/>
</svg>
