<svg width="26" height="30" viewBox="0 0 26 30" fill="none" xmlns="http://www.w3.org/2000/svg">
<path d="M24.7543 9.04652L15.9652 0.257461C15.8004 0.0925781 15.5768 0 15.3438 0H1.86719C1.3818 0 0.988281 0.393516 0.988281 0.878906V29.1211C0.988281 29.6065 1.3818 30 1.86719 30H24.1328C24.6182 30 25.0117 29.6065 25.0117 29.1211V9.66797C25.0117 9.43482 24.9191 9.21129 24.7543 9.04652ZM15.9297 15.8789H13.8789V17.9297C13.8789 18.4151 13.4854 18.8086 13 18.8086C12.5146 18.8086 12.1211 18.4151 12.1211 17.9297V15.8789H10.0703C9.58492 15.8789 9.19141 15.4854 9.19141 15C9.19141 14.5146 9.58492 14.1211 10.0703 14.1211H12.1211V12.0703C12.1211 11.5849 12.5146 11.1914 13 11.1914C13.4854 11.1914 13.8789 11.5849 13.8789 12.0703V14.1211H15.9297C16.4151 14.1211 16.8086 14.5146 16.8086 15C16.8086 15.4854 16.4151 15.8789 15.9297 15.8789Z" fill="#fff"/>
</svg>
